<svg width="24" height="25" viewBox="0 0 24 25" fill="none" xmlns="http://www.w3.org/2000/svg">
<g clip-path="url(#clip0_3223_24840)">
<path d="M24 12.1719C24 5.54445 18.6274 0.171875 12 0.171875C5.37258 0.171875 0 5.54445 0 12.1719C0 18.1613 4.3882 23.1259 10.125 24.0261V15.6406H7.07812V12.1719H10.125V9.52813C10.125 6.52063 11.9166 4.85938 14.6576 4.85938C15.9701 4.85938 17.3438 5.09375 17.3438 5.09375V8.04688H15.8306C14.34 8.04688 13.875 8.97195 13.875 9.92188V12.1719H17.2031L16.6711 15.6406H13.875V24.0261C19.6118 23.1259 24 18.1613 24 12.1719Z" fill="white"/>
</g>
<defs>
<clipPath id="clip0_3223_24840">
<rect width="24" height="24" fill="white" transform="translate(0 0.171875)"/>
</clipPath>
</defs>
</svg>
