<svg width="81" height="80" viewBox="0 0 81 80" fill="none" xmlns="http://www.w3.org/2000/svg">
<path d="M76.661 55.3596C76.501 55.3596 76.341 55.3596 76.021 55.1996C75.221 54.8796 74.741 53.9196 75.061 53.1196C77.461 46.7196 66.261 34.3996 45.621 26.5596C36.181 23.0396 26.741 21.1196 19.061 21.2796C12.021 21.4396 7.22102 23.5196 5.94102 26.7196C5.62102 27.5196 4.66102 27.9996 3.86102 27.6796C3.06102 27.3596 2.58102 26.3996 2.90102 25.5996C4.66102 20.9596 10.421 18.2396 18.901 18.0796C27.061 17.9196 36.821 19.8396 46.741 23.5196C67.861 31.5196 81.621 45.1196 78.101 54.2396C77.941 55.0396 77.301 55.3596 76.661 55.3596Z" fill="#4D5471"/>
<path d="M47.0587 56.1604C46.4187 56.1604 45.7787 55.8404 45.6187 55.2004C45.2987 54.4004 45.6187 53.4404 46.4187 53.1204C66.5787 44.0004 77.1387 31.2004 74.2587 24.9604C73.9387 24.1604 74.2587 23.2004 75.0587 22.8804C75.8587 22.5604 76.8187 22.8804 77.1387 23.6804C81.1387 32.6404 68.1787 47.0404 47.5387 56.1604C47.5387 56.1604 47.2187 56.1604 47.0587 56.1604Z" fill="#F4BC5F"/>
<path d="M19.0609 63.1948C11.0609 63.1948 5.78091 60.7948 3.86091 56.4748C3.54091 55.6748 3.86091 54.7148 4.66091 54.3948C5.46091 54.0748 6.42091 54.3948 6.74091 55.1948C8.18091 58.3948 12.9809 60.1548 20.1809 59.8348C27.8609 59.6748 37.1409 57.2748 46.4209 53.1148C47.2209 52.7948 48.1809 53.1148 48.5009 53.9148C48.8209 54.7148 48.5009 55.6748 47.7009 55.9948C38.1009 60.3148 28.3409 62.8748 20.1809 63.0348C19.8609 63.0348 19.3809 63.1948 19.0609 63.1948Z" fill="#F4BC5F"/>
<path d="M25.9381 48.1608C25.2981 48.1608 24.6581 47.8408 24.4981 47.2008C20.1781 37.6007 17.6181 27.8408 17.4581 19.6808C17.1381 11.2008 19.5381 5.28075 24.0181 3.20075C24.8181 2.88075 25.7781 3.20075 26.0981 4.00075C26.4181 4.80075 26.0981 5.76075 25.2981 6.08075C22.0981 7.52075 20.3381 12.4808 20.6581 19.5208C20.8181 27.2008 23.2181 36.4808 27.3781 45.7608C27.6981 46.5608 27.3781 47.5208 26.5781 47.8408C26.4181 48.1608 26.0981 48.1608 25.9381 48.1608Z" fill="#E23E2D"/>
<path d="M53.3014 77.4348C49.4614 77.4348 44.8214 75.1948 40.1814 70.7148C34.2614 65.1148 28.6614 56.7948 24.3414 47.1948C24.0214 46.3948 24.3414 45.4348 25.1414 45.1148C25.9414 44.7948 26.9014 45.1148 27.2214 45.9148C31.3814 55.1948 36.6614 63.1948 42.2614 68.4748C47.3814 73.2748 52.1814 75.3548 55.3814 73.9148C56.1814 73.5948 57.1414 73.9148 57.4614 74.7148C57.7814 75.5148 57.4614 76.4748 56.6614 76.7948C55.8614 77.2748 54.5814 77.4348 53.3014 77.4348Z" fill="#E23E2D"/>
<path d="M66.738 49.9215C64.818 55.0415 61.458 59.3615 57.298 62.4015C49.938 68.0015 39.858 69.7615 30.578 66.0815C21.298 62.5615 14.898 54.7215 13.138 45.6015C12.018 40.6415 12.498 35.2015 14.418 30.0815C14.898 28.9615 15.378 28.0015 15.858 27.0415C22.418 14.7215 37.138 8.80154 50.578 13.9215C64.018 19.0415 71.218 33.2815 67.858 46.7215C67.378 47.8415 67.058 48.9615 66.738 49.9215Z" fill="#58B44F"/>
<path d="M60.9798 58.2409C60.9798 58.0809 60.8198 58.0809 60.8198 58.0809C60.4998 57.2809 60.4998 56.4809 60.9798 55.6809C61.2998 55.0409 61.2998 54.4009 60.9798 53.7609C60.6598 53.1209 60.4998 52.3209 60.3398 51.6809C60.1798 51.2009 60.3398 50.7209 60.8198 50.2409C60.9798 50.0809 61.2998 49.9209 61.4598 49.6009C61.9398 49.1209 62.0998 48.6409 61.7798 48.0009C61.4598 47.3609 61.2998 46.5609 61.1398 45.7609C60.9798 45.2809 61.1398 44.6409 61.2998 44.1609C61.6198 43.5209 61.4598 43.2009 60.8198 43.0409C60.4998 42.8809 60.1798 42.7209 59.8598 42.5609C59.5398 42.4009 59.2198 42.4009 59.0598 42.7209C59.0598 42.8809 58.8998 42.8809 58.8998 43.0409C58.7398 43.3609 58.5798 43.3609 58.2598 43.3609C58.0998 43.3609 57.9398 43.2009 57.7798 43.2009C57.2998 43.0409 56.9798 43.0409 56.6598 43.3609L56.4998 43.5209C56.0198 43.8409 55.5398 43.6809 55.2198 43.2009C55.0598 43.0409 55.0598 42.7209 54.8998 42.5609C54.7398 41.9209 54.4198 41.4409 54.0998 41.1209C53.9398 40.9609 53.7798 40.8009 53.6198 40.6409C53.4598 40.0009 53.2998 39.6809 53.2998 39.5209C53.2998 39.0409 53.2998 38.5609 53.1398 37.9209C52.8198 36.6409 53.1398 35.5209 54.0998 34.4009L56.0198 32.0009C56.3398 31.5209 56.4998 31.0409 56.1798 30.4009C56.0198 30.4009 55.8598 30.5609 55.6998 30.5609C55.5398 30.7209 55.3798 30.7209 55.2198 30.5609C55.0598 30.4009 55.0598 30.2409 55.0598 30.2409C54.8998 29.9209 54.8998 29.6009 54.8998 29.2809C54.7398 28.4809 54.8998 28.1609 55.8598 28.1609H56.4998H56.6598C57.1398 28.1609 57.4598 27.6809 57.1398 27.2009C57.1398 27.2009 57.1398 27.0409 56.9798 27.0409C56.8198 26.8809 56.6598 26.8809 56.4998 26.7209C56.3398 26.5609 56.1798 26.4009 55.8598 26.2409C56.1798 26.2409 56.1798 26.0809 56.3398 26.0809C57.1398 25.9209 57.6198 25.6009 58.0998 24.9609C58.2598 24.6409 58.5798 24.3209 58.8998 24.1609C59.0598 24.0009 59.0598 23.8409 58.8998 23.8409C58.7398 23.6809 58.5798 23.5209 58.4198 23.3609C58.2598 23.2009 58.0998 23.0409 58.0998 22.8809C58.0998 22.4009 58.0998 22.4009 57.6198 22.2409C57.1398 22.0809 56.9798 21.7609 56.9798 21.2809C56.9798 21.1209 57.1398 20.9609 57.2998 20.8009C58.0998 20.6409 58.2598 20.4809 58.2598 19.6809C58.4198 18.8809 58.4198 18.8809 59.2198 19.0409C56.6598 16.8009 53.7798 14.8809 50.4198 13.6009C40.1798 9.92092 28.8198 12.4809 21.2998 19.6809C21.6198 19.5209 21.9398 19.5209 22.2598 19.6809C22.5798 19.8409 22.7398 19.8409 23.0598 20.0009C23.6998 20.3209 24.4998 20.4809 25.2998 20.3209C25.7798 20.3209 26.4198 20.1609 26.8998 20.1609C27.0598 20.1609 27.2198 20.0009 27.3798 20.0009C27.2198 20.0009 27.2198 20.0009 27.0598 20.0009C26.4198 20.1609 25.7798 20.0009 25.1398 19.8409C24.9798 19.6809 24.6598 19.6809 24.6598 19.3609C24.6598 19.3609 24.6598 19.2009 24.6598 19.0409C24.4998 19.2009 24.3398 19.3609 24.1798 19.5209C24.0198 19.6809 23.6998 19.6809 23.6998 19.5209C23.5398 19.3609 23.3798 19.2009 23.5398 18.8809C23.5398 18.5609 23.8598 18.5609 24.0198 18.5609C24.4998 18.5609 24.8198 18.7209 25.2998 18.8809C25.9398 19.0409 26.5798 19.0409 27.0598 18.8809C27.3798 18.8809 27.5398 18.7209 27.6998 18.4009C27.6998 18.2409 27.8598 18.0809 28.0198 18.2409C28.1798 18.2409 28.3398 18.4009 28.3398 18.5609V19.0409C28.3398 19.2009 28.3398 19.2009 28.1798 19.3609C28.6598 19.5209 28.9798 19.5209 29.4598 19.6809C29.7798 19.8409 30.2598 19.8409 30.5798 20.3209C30.5798 20.0009 30.7398 19.8409 30.7398 19.5209C30.7398 19.3609 30.7398 19.2009 30.8998 19.0409C31.2198 18.4009 31.3798 18.2409 32.0198 18.4009C32.1798 18.2409 32.4998 18.0809 32.6598 17.7609C32.4998 17.7609 32.3398 17.6009 32.1798 17.6009C32.1798 17.1209 32.3398 17.1209 32.6598 17.2809C32.8198 17.4409 33.1398 17.6009 33.1398 17.7609C33.6198 18.2409 34.0998 18.4009 34.7398 18.4009H35.8598C36.3398 18.4009 36.6598 18.7209 36.8198 19.0409C37.2998 19.6809 37.7798 20.0009 38.5798 20.1609C38.8998 20.1609 39.2198 20.3209 39.3798 20.6409C39.2198 20.6409 38.8998 20.6409 38.7398 20.6409C38.5798 20.6409 38.2598 20.4809 38.0998 20.4809C38.0998 20.4809 37.9398 20.4809 37.9398 20.6409V20.9609C38.0998 21.1209 38.2598 21.1209 38.2598 21.2809C38.0998 21.6009 37.9398 21.9209 37.6198 22.4009C37.1398 22.4009 36.8198 22.0809 36.4998 21.9209C36.1798 21.7609 35.6998 21.4409 35.3798 21.2809C35.5398 21.1209 35.8598 20.8009 36.0198 20.6409C36.0198 20.6409 36.0198 20.6409 36.0198 20.4809C35.6998 20.4809 35.3798 20.4809 35.2198 20.3209C34.8998 19.2009 34.4198 19.2009 33.9398 19.2009C33.9398 19.6809 33.7798 20.0009 33.7798 20.4809C33.7798 20.4809 33.7798 20.6409 33.9398 20.8009C34.0998 20.9609 34.0998 21.1209 33.7798 21.2809C33.4598 21.4409 33.1398 21.6009 32.8198 21.7609C32.6598 21.7609 32.4998 21.7609 32.3398 21.6009C32.1798 21.4409 32.1798 21.2809 32.0198 21.1209C31.5398 21.4409 31.2198 21.9209 30.7398 22.2409C30.5798 22.4009 30.5798 22.5609 30.4198 22.7209C30.2598 23.0409 30.2598 23.3609 30.7398 23.3609C31.6998 23.6809 32.6598 23.8409 33.6198 24.1609H34.0998C34.5798 24.1609 34.8998 23.8409 34.5798 23.2009C34.4198 22.7209 34.5798 21.9209 35.2198 21.6009C35.6998 21.2809 36.4998 21.4409 36.8198 21.9209C36.9798 22.0809 36.9798 22.2409 37.1398 22.4009C37.4598 22.7209 37.9398 22.7209 38.2598 22.4009C38.4198 22.2409 38.5798 22.2409 38.7398 22.4009C38.7398 22.5609 38.8998 22.7209 38.8998 22.7209C38.8998 23.0409 39.0598 23.3609 39.3798 23.5209C39.6998 23.6809 40.0198 24.0009 40.3398 24.1609C40.8198 24.6409 41.1398 25.1209 40.9798 25.7609C40.9798 25.9209 40.9798 26.0809 41.1398 26.0809C41.4598 26.0809 41.6198 26.4009 41.7798 26.7209C41.7798 27.0409 41.6198 27.2009 41.2998 27.2009C40.9798 27.2009 40.6598 27.0409 40.3398 26.8809C39.8598 26.7209 39.6998 26.4009 39.8598 25.9209C39.8598 25.6009 39.8598 25.6009 39.5398 25.6009C39.3798 25.6009 39.0598 25.6009 38.8998 25.6009C38.7398 25.6009 38.5798 25.4409 38.4198 25.4409C38.2598 25.4409 38.0998 25.4409 37.9398 25.4409C37.4598 25.7609 37.1398 26.2409 36.6598 26.7209C37.1398 26.8809 37.6198 26.5609 38.0998 26.7209V27.2009C38.4198 27.3609 38.7398 27.3609 39.0598 27.5209C38.7398 27.8409 38.4198 28.1609 38.0998 28.1609C37.9398 28.1609 37.7798 28.0009 37.7798 28.0009C37.4598 27.5209 36.9798 27.5209 36.6598 27.8409C36.4998 28.0009 36.4998 28.1609 36.3398 28.3209C36.1798 28.4809 36.1798 28.8009 36.0198 28.9609C35.8598 29.2809 35.6998 29.6009 35.2198 29.6009C35.0598 29.6009 34.8998 29.7609 34.7398 30.0809C34.7398 30.2409 34.5798 30.2409 34.4198 30.4009C34.2598 30.4009 34.0998 30.4009 34.0998 30.5609C33.9398 30.5609 33.9398 30.7209 33.9398 30.8809C34.0998 31.2009 33.9398 31.5209 33.7798 31.6809C33.6198 31.8409 33.6198 32.0009 33.4598 32.1609C32.9798 32.6409 32.8198 33.1209 32.8198 33.7609C32.8198 34.2409 32.8198 34.7209 32.6598 35.2009C32.6598 35.3609 32.6598 35.3609 32.4998 35.6809C32.3398 35.5209 32.3398 35.3609 32.1798 35.2009C32.1798 35.0409 32.0198 34.8809 32.0198 34.8809C31.6998 33.9209 31.3798 33.7609 30.2598 33.9209C30.0998 33.9209 30.0998 34.0809 29.9398 34.2409C29.7798 34.2409 29.4598 34.2409 29.1398 34.2409C28.1798 34.2409 27.5398 34.5609 27.0598 35.3609C26.8998 35.6809 26.7398 36.1609 26.5798 36.4809C26.2598 37.4409 27.2198 38.4009 28.1798 38.4009C28.6598 38.4009 28.8198 38.0809 28.9798 37.6009C29.4598 37.6009 29.6198 37.7609 29.6198 38.0809V38.5609C29.6198 39.3609 29.9398 39.6809 30.5798 39.8409H30.8998C30.5798 40.3209 30.8998 40.6409 31.2198 40.9609L31.5398 41.2809C31.8598 41.6009 32.1798 41.9209 32.6598 41.6009C32.8198 41.4409 33.1398 41.6009 33.1398 41.9209C33.1398 42.2409 33.2998 42.2409 33.6198 42.2409L33.9398 41.4409C34.0998 41.1209 34.2598 40.9609 34.7398 40.9609C35.5398 41.1209 36.3398 41.4409 37.1398 41.6009C37.4598 41.7609 37.6198 41.7609 37.9398 41.9209C38.4198 42.0809 38.8998 42.4009 39.0598 42.8809C39.2198 43.2009 39.5398 43.3609 39.6998 43.5209C40.0198 43.6809 40.1798 43.8409 40.4998 44.0009C40.6598 44.1609 40.9798 44.3209 41.1398 44.4809C42.0998 45.4409 43.2198 46.0809 44.4998 46.4009C44.9798 46.5609 45.4598 46.8809 45.9398 47.0409C46.4198 47.3609 46.4198 47.5209 46.0998 48.0009C45.6198 48.8009 45.4598 49.6009 45.4598 50.5609V52.0009C45.4598 52.4809 45.1398 52.9609 44.6598 53.1209C44.3398 53.2809 44.1798 53.2809 43.8598 53.4409C43.2198 53.6009 42.8998 54.0809 42.5798 54.5609C42.4198 54.8809 42.0998 55.2009 41.7798 55.5209C41.2998 56.0009 40.9798 56.4809 40.8198 57.1209C40.6598 57.6009 40.4998 58.0809 40.3398 58.5609C40.1798 58.8809 40.0198 59.0409 39.5398 59.0409C39.5398 58.8809 39.5398 58.7209 39.3798 58.5609C39.2198 57.7609 39.0598 57.6009 38.8998 57.6009C38.7398 57.6009 38.5798 57.7609 38.4198 57.9209C38.2598 58.2409 38.2598 58.5609 38.2598 58.8809C38.2598 59.0409 38.4198 59.2009 38.4198 59.5209C38.5798 60.0009 38.5798 60.1609 38.0998 60.4809C37.9398 60.4809 37.9398 60.6409 37.9398 60.6409V61.1209C37.9398 61.1209 37.7798 61.2809 37.6198 61.2809C37.2998 61.2809 36.9798 61.2809 36.6598 61.2809C36.4998 61.2809 36.3398 61.4409 36.3398 61.4409C36.1798 62.0809 36.0198 62.8809 35.8598 63.5209C35.8598 64.0009 35.8598 64.3209 35.6998 64.8009C35.6998 65.2809 35.8598 65.4409 36.1798 65.4409C36.3398 65.4409 36.4998 65.6009 36.6598 65.6009C36.6598 65.6009 36.8198 65.7609 36.8198 65.9209L36.6598 66.0809C36.0198 66.0809 35.2198 65.9209 34.7398 65.4409C34.5798 65.2809 34.4198 64.9609 34.4198 64.6409C34.2598 63.8409 34.2598 63.0409 34.2598 62.2409C34.2598 61.7609 34.2598 61.2809 34.0998 60.8009C33.9398 60.0009 34.0998 59.3609 34.5798 58.7209C35.0598 57.7609 35.2198 56.8009 35.2198 55.8409C35.2198 54.8809 35.0598 53.9209 35.0598 52.9609C35.0598 52.8009 35.0598 52.8009 35.0598 52.6409C35.0598 52.1609 34.8998 51.8409 34.4198 51.6809C33.9398 51.6809 33.7798 51.3609 33.6198 50.8809C33.4598 50.5609 33.4598 50.4009 33.2998 50.0809C33.1398 49.6009 32.8198 48.9609 32.4998 48.6409C32.0198 48.1609 32.0198 47.5209 32.1798 46.8809C32.3398 46.5609 32.4998 46.0809 32.6598 45.7609C32.6598 45.6009 32.8198 45.4409 32.8198 45.2809C32.9798 44.8009 33.1398 44.3209 33.1398 44.0009C33.1398 43.6809 32.9798 43.5209 32.9798 43.2009C32.9798 43.0409 32.8198 42.8809 32.4998 42.8809C32.3398 42.8809 32.1798 42.7209 32.1798 42.7209C31.6998 42.4009 31.2198 41.9209 30.7398 41.4409C30.5798 41.2809 30.2598 40.9609 30.0998 40.8009C29.9398 40.4809 29.6198 40.1609 29.1398 40.0009C28.3398 39.6809 27.3798 39.3609 26.4198 39.0409C25.1398 38.7209 24.1798 38.0809 23.6998 36.8009C22.8998 35.2009 22.2598 34.4009 21.4598 33.6009L21.2998 33.4409C20.9798 33.7609 20.9798 34.0809 21.1398 34.4009C21.2998 34.7209 21.4598 35.0409 21.6198 35.5209C21.7798 35.8409 21.7798 36.0009 21.9398 36.3209C21.4598 36.1609 21.1398 36.0009 20.9798 35.5209C20.9798 35.2009 20.8198 34.7209 20.8198 34.4009C20.8198 33.4409 20.4998 32.6409 19.6998 32.1609C19.0598 31.6809 18.7398 30.8809 18.7398 30.0809C18.7398 29.6009 18.7398 29.1209 18.8998 28.8009C19.0598 28.0009 19.0598 27.2009 18.8998 26.4009C18.8998 26.0809 18.7398 25.6009 18.7398 25.2809C18.5798 25.6009 18.4198 25.7609 18.2598 25.9209C18.0998 26.0809 17.9398 26.0809 17.7798 25.9209C17.6198 25.6009 17.6198 25.1209 17.9398 24.8009C18.2598 24.3209 18.7398 24.0009 18.8998 23.5209C19.3798 22.7209 19.8598 21.7609 20.3398 20.8009C20.4998 20.4809 20.6598 20.1609 20.9798 20.0009C18.0998 22.7209 15.8598 26.2409 14.2598 30.0809C8.33978 45.7609 17.4598 63.0409 33.1398 67.0409H33.4598C43.8598 69.7609 54.5798 66.0809 61.2998 58.7209C61.6198 58.4009 61.7798 58.2409 61.9398 57.9209C61.6198 58.0809 61.2998 58.0809 60.9798 58.2409ZM27.8598 16.6409C27.8598 16.9609 27.6998 17.1209 27.5398 17.2809C27.3798 17.2809 27.2198 17.2809 27.2198 17.1209C27.3798 16.9609 27.5398 16.8009 27.8598 16.6409ZM28.1798 17.7609C27.6998 17.7609 27.3798 17.9209 27.2198 18.2409C27.0598 18.4009 26.7398 18.2409 26.5798 18.2409C26.4198 18.2409 26.4198 18.2409 26.2598 18.2409C26.0998 18.2409 26.0998 18.0809 25.9398 18.0809C25.7798 17.9209 25.6198 17.9209 25.2998 17.9209C25.1398 17.9209 24.8198 17.9209 24.6598 17.9209C24.6598 17.9209 24.4998 17.9209 24.4998 17.7609C24.4998 17.7609 24.4998 17.6009 24.6598 17.6009C24.9798 17.4409 25.4598 17.4409 25.7798 17.2809H25.9398C26.0998 17.4409 26.2598 17.4409 26.4198 17.2809C26.5798 17.1209 26.7398 17.1209 26.8998 17.2809C27.2198 17.6009 27.3798 17.6009 27.6998 17.4409C27.8598 17.2809 28.0198 17.2809 28.3398 17.2809L28.4998 17.4409C28.3398 17.6009 28.3398 17.7609 28.1798 17.7609ZM30.4198 16.8009C30.2598 16.8009 30.0998 16.6409 29.9398 16.6409C29.7798 16.6409 29.6198 16.4809 29.4598 16.4809V16.3209H29.9398C30.0998 16.3209 30.2598 16.4809 30.4198 16.6409V16.8009ZM33.7798 37.4409C33.2998 37.4409 32.9798 37.2809 32.6598 36.8009C32.3398 36.3209 31.8598 36.3209 31.3798 36.4809C31.2198 36.4809 30.8998 36.4809 30.7398 36.4809V36.3209C30.8998 36.3209 31.0598 36.1609 31.2198 36.1609C31.6998 36.1609 32.3398 36.1609 32.8198 36.3209C32.9798 36.3209 32.9798 36.3209 33.1398 36.4809C33.2998 36.6409 33.6198 36.8009 33.9398 36.8009C33.9398 36.8009 34.0998 36.8009 34.0998 36.9609C34.0998 37.1209 34.2598 37.2809 34.2598 37.2809C34.0998 37.4409 33.9398 37.4409 33.7798 37.4409ZM35.6998 38.2409C35.3798 38.4009 34.7398 38.4009 34.5798 38.2409C34.4198 38.0809 34.4198 37.6009 34.7398 37.6009H35.5398C35.8598 37.6009 36.1798 37.7609 36.3398 37.9209C36.0198 37.9209 35.8598 38.0809 35.6998 38.2409ZM54.4198 24.0009C54.5798 23.8409 54.8998 23.8409 54.7398 23.5209C54.7398 23.5209 54.7398 23.3609 54.8998 23.3609C55.0598 23.2009 55.2198 22.8809 55.5398 22.5609C55.6998 22.8809 55.8598 23.0409 56.0198 23.2009C56.3398 24.0009 56.8198 24.6409 57.6198 25.1209C57.2998 25.7609 56.8198 26.0809 56.1798 25.7609C55.8598 25.6009 55.6998 25.2809 55.6998 24.9609C55.6998 24.8009 55.6998 24.8009 55.6998 24.6409C55.6998 24.4809 55.5398 24.3209 55.5398 24.3209C55.3798 24.3209 55.2198 24.3209 55.2198 24.4809C54.8998 25.1209 54.7398 25.1209 54.2598 24.4809C54.2598 24.4809 54.2598 24.3209 54.0998 24.3209C53.9398 24.3209 54.2598 24.1609 54.4198 24.0009ZM37.6198 14.8809C37.1398 15.0409 36.8198 15.2009 36.6598 15.5209C36.3398 16.0009 36.0198 16.1609 35.3798 16.3209C35.0598 16.3209 34.7398 16.4809 34.4198 16.6409C34.2598 16.6409 34.0998 16.8009 34.2598 16.9609C34.2598 17.1209 34.4198 17.1209 34.5798 17.2809C34.7398 17.2809 34.7398 17.2809 34.8998 17.4409C34.8998 17.7609 34.7398 17.9209 34.4198 17.7609C33.9398 17.6009 33.4598 17.4409 32.9798 17.2809C33.1398 16.4809 33.1398 16.4809 32.3398 16.3209C32.0198 16.3209 31.6998 16.3209 31.5398 16.0009C31.3798 15.6809 31.3798 15.5209 31.6998 15.6809C32.1798 15.6809 32.6598 15.8409 32.9798 15.8409H33.1398C33.2998 15.0409 33.9398 14.8809 34.7398 14.8809C35.5398 14.8809 36.1798 14.8809 36.9798 14.7209C37.2998 14.5609 37.7798 14.5609 38.0998 14.7209V14.8809C38.0998 14.7209 37.9398 14.7209 37.6198 14.8809ZM48.9798 19.2009C48.0198 19.3609 47.2198 19.5209 46.2598 19.8409C45.9398 20.0009 45.6198 20.0009 45.1398 20.0009C44.8198 20.0009 44.4998 20.1609 44.4998 20.4809C44.3398 20.6409 44.3398 20.9609 44.1798 21.1209C44.1798 21.2809 44.1798 21.2809 44.0198 21.4409C43.6998 22.2409 42.8998 22.5609 42.4198 21.7609C42.0998 21.2809 41.7798 20.8009 41.4598 20.3209C41.2998 20.0009 41.4598 19.5209 41.2998 19.2009C41.2998 19.0409 41.2998 19.0409 41.2998 18.8809C40.4998 19.2009 40.0198 18.7209 39.5398 18.0809C39.3798 17.9209 39.2198 17.6009 39.0598 17.4409C38.7398 16.9609 38.4198 16.6409 37.7798 16.6409C37.6198 16.6409 37.6198 16.6409 37.6198 16.6409C37.1398 16.4809 36.9798 16.4809 37.2998 16.0009C37.7798 15.3609 38.4198 14.8809 39.2198 14.7209C40.0198 14.5609 40.4998 14.4009 40.8198 14.2409C41.4598 14.0809 42.0998 13.9209 42.7398 14.2409C43.2198 14.4009 43.8598 14.4009 44.3398 13.9209C44.6598 13.6009 45.1398 13.7609 45.4598 14.0809C45.6198 14.2409 45.7798 14.4009 45.9398 14.4009C46.0998 14.5609 46.2598 14.4009 46.4198 14.2409C46.7398 13.9209 47.0598 13.7609 47.3798 14.0809C47.8598 14.4009 48.3398 14.4009 48.9798 14.4009C49.1398 14.4009 49.4598 14.2409 49.6198 14.5609C49.7798 14.8809 49.4598 15.0409 49.2998 15.2009C48.9798 15.5209 48.8198 15.8409 48.4998 16.1609C48.3398 16.4809 48.3398 16.6409 48.6598 16.4809C49.1398 16.4809 49.7798 16.4809 50.2598 16.6409C50.5798 16.6409 50.7398 16.4809 51.0598 16.4809C51.3798 16.3209 51.8598 16.3209 52.1798 16.1609C52.3398 16.1609 52.3398 16.3209 52.4998 16.3209C52.4998 16.4809 52.3398 16.6409 52.3398 16.8009C52.1798 16.9609 52.0198 16.9609 52.0198 16.9609C51.6998 16.9609 51.5398 17.1209 51.2198 17.2809C50.8998 17.6009 50.7398 17.6009 50.4198 17.4409C50.2598 17.4409 50.0998 17.2809 49.9398 17.2809C49.6198 17.1209 49.4598 17.2809 49.4598 17.6009V18.5609C49.4598 19.0409 49.4598 19.2009 48.9798 19.2009ZM49.2998 20.0009H49.9398C50.2598 20.1609 50.4198 20.1609 50.7398 20.0009C51.0598 19.8409 51.2198 19.8409 51.5398 20.1609C51.6998 20.3209 51.8598 20.3209 52.1798 20.4809C51.8598 20.6409 51.6998 20.8009 51.3798 20.8009C51.2198 20.8009 51.0598 20.8009 50.8998 20.8009C50.5798 20.8009 50.0998 20.8009 49.9398 21.1209C49.6198 20.8009 49.4598 20.6409 49.1398 20.3209C48.9798 20.1609 49.1398 20.0009 49.2998 20.0009Z" fill="#63AFFA"/>
<path d="M64.6603 32.0034C64.8203 32.3234 64.8203 32.4834 64.9803 32.6434C64.8203 32.6434 64.5003 32.8034 64.3403 32.9634C64.0203 33.1234 63.8603 32.9634 63.5403 32.8034C63.3803 32.6434 63.2203 32.4834 63.0603 32.3234C62.7403 31.8434 62.4203 31.6834 61.9403 31.8434C61.7803 31.8434 61.4603 31.8434 61.3003 31.8434C61.3003 31.6834 61.3003 31.6834 61.3003 31.6834C61.7803 30.8834 61.6203 30.7234 60.8203 30.5634C59.7003 30.4034 58.7403 30.5634 57.6203 31.0434H57.4603C57.3003 31.0434 56.9803 30.8834 56.8203 30.8834C57.4603 30.5634 57.7803 30.0834 57.6203 29.4434C57.6203 29.2834 57.6203 28.9634 57.7803 28.8034C57.7803 28.8034 57.9403 28.6434 58.1003 28.6434C58.2603 28.6434 58.4203 28.6434 58.4203 28.4834C59.2203 27.8434 60.0203 27.8434 60.8203 28.4834C60.9803 28.4834 60.9803 28.6434 61.1403 28.6434C61.4603 28.9634 61.9403 29.1234 62.2603 29.4434C62.2603 29.6034 62.2603 29.7634 62.1003 29.9234C62.1003 30.0834 62.1003 30.2434 62.2603 30.2434C62.4203 30.2434 62.5803 30.0834 62.7403 29.9234C62.9003 29.7634 62.9003 29.4434 62.7403 29.2834C62.5803 29.1234 62.4203 28.9634 62.2603 28.9634C61.9403 28.6434 61.4603 28.3234 61.1403 28.0034C60.9803 27.8434 60.9803 27.6834 60.9803 27.6834C61.1403 27.6834 61.3003 27.5234 61.3003 27.5234C61.4603 27.5234 61.7803 27.6834 61.9403 27.8434C63.0603 28.8034 64.0203 29.7634 64.6603 31.0434C64.6603 31.0434 64.6603 31.0434 64.8203 31.2034C64.9803 30.8834 65.1403 30.7234 65.3003 30.4034C65.6203 29.7634 65.7803 29.7634 66.2603 30.2434C66.4203 30.4034 66.5803 30.5634 66.7403 30.7234C66.9003 31.2034 67.0603 31.6834 67.2203 32.3234C66.5803 32.3234 65.6203 32.1634 64.6603 32.0034Z" fill="#63AFFA"/>
<path d="M62.8995 23.1972C62.8995 23.0372 62.8995 23.0372 62.8995 23.1972C62.7395 23.0372 62.7395 23.0372 62.8995 23.1972C62.2595 22.3972 61.7795 21.7572 61.1395 21.1172C60.9795 21.2772 60.8195 21.4372 60.6595 21.5972C60.3395 21.9172 60.4995 22.3972 60.9795 22.5572C61.4595 22.8772 61.4595 23.0372 60.9795 23.3572C60.8195 23.5172 60.6595 23.5172 60.4995 23.5172C60.3395 23.5172 60.1795 23.6772 60.0195 23.6772V23.8372H60.9795C61.4595 23.8372 61.7795 23.9972 62.2595 24.1572C62.4195 24.3172 62.7395 24.4772 62.8995 24.4772C63.2195 24.4772 63.3795 24.3172 63.5395 24.1572L62.8995 23.1972Z" fill="#63AFFA"/>
<path d="M32.4991 20.1581C32.4991 19.5181 32.1791 19.1981 31.5391 18.8781C31.5391 18.5581 31.6991 18.3981 31.6991 18.0781C32.0191 18.3981 32.3391 18.7181 32.4991 19.0381C32.6591 19.1981 32.6591 19.3581 32.8191 19.3581C33.1391 19.9981 32.9791 20.1581 32.4991 20.1581Z" fill="#63AFFA"/>
<path d="M56.6587 27.6798C51.2187 41.7598 35.5387 48.7998 21.4587 43.5198C17.1387 41.9198 12.8187 46.2398 14.5787 50.5598C17.7787 58.3998 24.4987 64.7998 33.4587 67.1998C46.0987 70.5598 59.5387 64.4798 65.4587 52.7998C69.7787 44.3198 69.2987 34.7198 65.2987 27.1998C63.3787 23.3598 58.0987 23.6798 56.6587 27.6798Z" fill="#4B9B43"/>
<path d="M56.5 28.1591C56.5 27.9991 56.5 27.8391 56.66 27.5191C56.66 27.3591 56.82 27.1991 56.82 27.0391C56.82 27.0391 56.82 27.0391 56.98 27.1991C57.3 27.6791 56.98 28.1591 56.5 28.1591Z" fill="#58B44F"/>
<path d="M61.9386 58.0819C61.7786 58.4019 61.4586 58.5619 61.2986 58.8819C55.6986 64.9619 47.6986 68.3219 39.8586 68.0019C39.6986 68.0019 39.3786 68.0019 39.2186 68.0019C38.8986 68.0019 38.4186 68.0019 38.0986 68.0019C27.2186 67.2019 18.2586 59.8419 14.4186 50.5619C13.9386 49.2819 13.9386 47.8419 14.4186 46.7219C15.3786 44.1619 18.2586 42.4019 21.2986 43.6819C24.9786 45.1219 28.6586 45.6019 32.3386 45.4419C32.1786 45.7619 32.0186 46.2419 31.8586 46.5619C31.6986 47.2019 31.6986 47.8419 32.1786 48.3219C32.4986 48.8019 32.8186 49.2819 32.9786 49.7619C33.1386 50.0819 33.1386 50.4019 33.2986 50.5619C33.4586 51.0419 33.7786 51.3619 34.0986 51.3619C34.5786 51.5219 34.7386 51.8419 34.7386 52.3219V52.6419C34.7386 53.6019 34.7386 54.5619 34.8986 55.5219C34.8986 56.4819 34.7386 57.4419 34.2586 58.4019C33.7786 59.0419 33.7786 59.6819 33.7786 60.4819C33.7786 60.9619 33.7786 61.4419 33.9386 61.9219C33.9386 62.7219 34.0986 63.5219 34.0986 64.3219C34.0986 64.6419 34.2586 64.9619 34.4186 65.1219C34.8986 65.6019 35.6986 65.7619 36.3386 65.7619C36.3386 65.7619 36.4986 65.7619 36.4986 65.6019C36.4986 65.6019 36.4986 65.4419 36.3386 65.2819C36.1786 65.2819 36.0186 65.1219 35.8586 65.1219C35.5386 64.9619 35.3786 64.8019 35.3786 64.4819C35.3786 64.0019 35.3786 63.5219 35.5386 63.2019C35.6986 62.5619 35.8586 61.7619 36.0186 61.1219C36.0186 60.9619 36.1786 60.9619 36.3386 60.9619H37.2986C37.4586 60.9619 37.6186 60.9619 37.6186 60.8019C37.6186 60.6419 37.6186 60.4819 37.6186 60.3219C37.6186 60.3219 37.7786 60.3219 37.7786 60.1619C38.2586 59.8419 38.2586 59.6819 38.0986 59.2019C38.0986 59.0419 37.9386 58.8819 37.9386 58.5619C37.9386 58.2419 37.9386 57.9219 38.0986 57.6019C38.0986 57.4419 38.4186 57.2819 38.5786 57.2819C38.7386 57.2819 38.8986 57.4419 39.0586 57.6019C39.2186 57.7619 39.2186 57.9219 39.2186 58.0819C39.6986 58.0819 39.8586 58.0819 40.0186 57.6019C40.1786 57.1219 40.3386 56.6419 40.4986 56.1619C40.6586 55.5219 40.9786 55.0419 41.4586 54.5619C41.7786 54.2419 42.0986 53.9219 42.2586 53.6019C42.5786 53.1219 43.0586 52.6419 43.5386 52.4819C43.8586 52.3219 44.0186 52.3219 44.3386 52.1619C44.8186 52.0019 45.1386 51.5219 45.1386 51.0419C45.1386 50.5619 45.1386 50.0819 45.1386 49.6019C45.1386 48.6419 45.2986 47.8419 45.7786 47.0419C46.0986 46.5619 46.0986 46.4019 45.6186 46.0819C45.1386 45.7619 44.6586 45.4419 44.1786 45.4419C42.8986 45.1219 41.7786 44.6419 40.8186 43.5219C40.6586 43.3619 40.4986 43.2019 40.1786 43.0419C46.4186 40.8019 51.8586 36.3219 55.0586 30.0819C55.2186 30.2419 55.3786 30.4019 55.5386 30.0819C55.6986 29.9219 55.8586 29.9219 56.0186 29.9219C56.1786 30.5619 56.1786 31.0419 55.8586 31.5219C55.2186 32.3219 54.5786 33.1219 53.9386 33.9219C53.1386 34.8819 52.6586 36.1619 52.9786 37.4419C53.1386 37.9219 53.1386 38.4019 53.1386 39.0419C53.1386 39.3619 53.2986 39.5219 53.4586 39.8419C53.6186 40.0019 53.7786 40.1619 53.9386 40.3219C54.4186 40.8019 54.5786 41.2819 54.7386 41.7619C54.7386 42.0819 54.8986 42.2419 55.0586 42.4019C55.3786 42.8819 55.8586 43.0419 56.3386 42.7219L56.4986 42.5619C56.8186 42.2419 57.2986 42.2419 57.6186 42.4019C57.7786 42.4019 57.9386 42.5619 58.0986 42.5619C58.4186 42.7219 58.5786 42.5619 58.7386 42.2419C58.7386 42.0819 58.8986 42.0819 58.8986 41.9219C59.0586 41.6019 59.3786 41.6019 59.6986 41.7619L60.6586 42.2419C61.2986 42.5619 61.4586 42.8819 61.1386 43.3619C60.8186 43.8419 60.8186 44.4819 60.9786 44.9619C61.1386 45.7619 61.2986 46.4019 61.6186 47.2019C61.9386 47.8419 61.7786 48.3219 61.2986 48.8019C61.1386 48.9619 60.8186 49.1219 60.6586 49.4419C60.1786 49.7619 60.0186 50.2419 60.1786 50.8819C60.3386 51.5219 60.4986 52.3219 60.8186 52.9619C61.1386 53.6019 61.1386 54.2419 60.8186 54.8819C60.4986 55.6819 60.3386 56.4819 60.6586 57.2819C60.6586 57.2819 60.6586 57.4419 60.8186 57.4419C61.2986 58.0819 61.6186 58.0819 61.9386 58.0819Z" fill="#529FFB"/>
<path d="M43.0617 65.7603C42.2617 65.7603 41.4617 65.1203 41.3017 64.1603C41.1417 63.2003 41.7817 62.2403 42.9017 62.2403C44.1817 62.0803 45.4617 61.7603 46.5817 61.4403C47.8617 61.1203 49.1417 60.6403 50.1017 60.1603C51.0617 59.6803 52.0217 60.1603 52.5017 60.9603C52.9817 61.7603 52.5017 62.8803 51.7017 63.3603C50.4217 64.0003 49.1417 64.4803 47.5417 64.8003C46.1017 65.1203 44.6617 65.4403 43.2217 65.7603C43.0617 65.7603 43.0617 65.7603 43.0617 65.7603Z" fill="#63AFFA"/>
<path d="M5.298 57.4381C4.658 57.4381 4.018 57.118 3.858 56.4781C-0.301996 47.518 12.658 33.1181 33.298 23.9981C42.898 19.6781 52.658 17.1181 60.818 16.9581C69.458 16.6381 75.218 19.0381 77.298 23.5181C77.618 24.3181 77.298 25.2781 76.498 25.5981C75.698 25.9181 74.738 25.5981 74.418 24.7981C72.978 21.5981 68.178 19.8381 60.978 20.1581C53.298 20.3181 44.018 22.7181 34.738 26.8781C14.418 35.9981 3.858 48.7981 6.738 55.1981C7.058 55.9981 6.738 56.958 5.938 57.278C5.778 57.438 5.458 57.4381 5.298 57.4381Z" fill="#F7CC6D"/>
<path d="M56.3404 76.7978C55.7004 76.7978 55.0604 76.4778 54.9004 75.8378C54.5804 75.0378 54.9004 74.0778 55.7004 73.7578C58.9004 72.3178 60.6604 67.3578 60.3404 60.3178C60.1804 52.6378 57.7804 43.3578 53.6204 34.0778C49.4604 24.7978 44.1804 16.7978 38.5804 11.5178C33.4604 6.71779 28.6604 4.63779 25.4604 6.07779C24.6604 6.39779 23.7004 6.07779 23.3804 5.27779C23.0604 4.47779 23.3804 3.51779 24.1804 3.19779C28.6604 1.11779 34.5804 3.35779 40.8204 9.27779C46.7404 14.8778 52.3404 23.1978 56.6604 32.7978C60.9804 42.3978 63.5404 52.1578 63.7004 60.3178C64.0204 68.9578 61.6204 74.7178 56.9804 76.7978C56.8204 76.7978 56.5004 76.7978 56.3404 76.7978Z" fill="#FC4A32"/>
<path d="M60.8198 61.9193C52.9798 61.9193 43.6998 59.9993 34.2598 56.4793C24.4998 52.7993 15.6998 47.6793 9.93983 42.0793C3.53983 36.1593 1.13983 30.2393 2.89983 25.5993C3.21983 24.7993 4.17983 24.3193 4.97983 24.6393C5.77983 24.9593 6.25983 25.9193 5.93983 26.7193C4.65983 30.0793 6.89983 34.7193 12.0198 39.5193C17.6198 44.7993 25.9398 49.7593 35.3798 53.2793C44.8198 56.9593 54.2598 58.7193 61.9398 58.5593C68.9798 58.3993 73.7798 56.3193 75.0598 53.1193C75.3798 52.3193 76.3398 51.8393 77.1398 52.1593C77.9398 52.4793 78.4198 53.4393 78.0998 54.2393C76.3398 58.8793 70.5798 61.5993 62.0998 61.7593C61.6198 61.9193 61.1398 61.9193 60.8198 61.9193Z" fill="#626681"/>
<path d="M71.5414 26.075C74.6342 26.075 77.1414 23.5678 77.1414 20.475C77.1414 17.3822 74.6342 14.875 71.5414 14.875C68.4486 14.875 65.9414 17.3822 65.9414 20.475C65.9414 23.5678 68.4486 26.075 71.5414 26.075Z" fill="#F7CC6D"/>
<path d="M73.6209 16.9522C73.6209 19.8322 71.2209 22.2322 68.3409 22.2322C67.2209 22.2322 66.5809 23.5122 67.3809 24.3122C68.6609 25.7522 70.5809 26.5522 72.6609 26.0722C74.9009 25.5922 76.6609 23.8322 77.1409 21.7522C77.6209 19.5122 76.8209 17.5922 75.2209 16.3122C74.5809 15.6722 73.6209 16.1522 73.6209 16.9522Z" fill="#F4BC5F"/>
<path d="M71.3833 18.0731C71.3833 19.1931 70.1033 21.1131 69.3033 21.1131C68.5033 21.1131 67.8633 20.1531 67.8633 19.0331C67.8633 17.9131 68.5033 16.9531 69.3033 16.9531C70.1033 16.9531 71.3833 16.9531 71.3833 18.0731Z" fill="#F9D78D"/>
<path d="M72.6595 25.2729C72.3395 25.2729 72.0195 25.1129 72.0195 24.6329C72.0195 24.3129 72.1795 23.8329 72.4995 23.8329C73.6195 23.6729 74.5795 22.7129 74.7395 21.5929C74.7395 21.2729 75.2195 20.9529 75.5395 21.1129C75.8595 21.1129 76.1795 21.5929 76.0195 21.9129C75.8595 23.5129 74.4195 24.9529 72.6595 25.2729Z" fill="#F9D78D"/>
<path d="M33.9398 58.8797C37.0326 58.8797 39.5398 56.3725 39.5398 53.2797C39.5398 50.1869 37.0326 47.6797 33.9398 47.6797C30.847 47.6797 28.3398 50.1869 28.3398 53.2797C28.3398 56.3725 30.847 58.8797 33.9398 58.8797Z" fill="#626681"/>
<path d="M36.0193 49.762C36.0193 52.642 33.6193 55.042 30.7393 55.042C29.6193 55.042 28.9793 56.322 29.7793 57.122C31.0593 58.562 32.9793 59.362 35.0593 58.882C37.2993 58.402 39.0593 56.642 39.5393 54.562C40.0193 52.322 39.2193 50.402 37.6193 49.122C36.9793 48.482 36.0193 48.802 36.0193 49.762Z" fill="#4D5471"/>
<path d="M33.6216 50.7216C33.6216 51.8416 32.3416 53.7616 31.5416 53.7616C30.7416 53.7616 30.1016 52.8016 30.1016 51.6816C30.1016 50.5616 30.7416 49.6016 31.5416 49.6016C32.3416 49.6016 33.6216 49.6016 33.6216 50.7216Z" fill="#6C8A8C"/>
<path d="M35.058 57.9213C34.738 57.9213 34.418 57.7613 34.418 57.2813C34.418 56.9613 34.578 56.4813 34.898 56.4813C36.018 56.3213 36.978 55.3613 37.138 54.2413C37.138 53.9213 37.618 53.6013 37.938 53.7613C38.258 53.7613 38.578 54.2413 38.418 54.5613C38.098 56.3213 36.818 57.6013 35.058 57.9213Z" fill="#6C8A8C"/>
<path d="M37.4594 14.3953C40.5522 14.3953 43.0594 11.8881 43.0594 8.79531C43.0594 5.70252 40.5522 3.19531 37.4594 3.19531C34.3666 3.19531 31.8594 5.70252 31.8594 8.79531C31.8594 11.8881 34.3666 14.3953 37.4594 14.3953Z" fill="#FC4A32"/>
<path d="M39.5389 5.27765C39.5389 8.15765 37.1389 10.5577 34.2589 10.5577C33.1389 10.5577 32.4989 11.8377 33.2989 12.6377C34.5789 14.0777 36.4989 14.8777 38.5789 14.3977C40.8189 13.9177 42.5789 12.1577 43.0589 10.0777C43.5389 7.83765 42.7389 5.91765 41.1389 4.63765C40.4989 3.99765 39.5389 4.31765 39.5389 5.27765Z" fill="#E23E2D"/>
<path d="M37.3013 6.23719C37.3013 7.35719 36.0213 9.27719 35.2213 9.27719C34.4213 9.27719 33.7812 8.31719 33.7812 7.19719C33.7812 6.07719 34.4213 5.11719 35.2213 5.11719C36.0213 5.11719 37.3013 5.11719 37.3013 6.23719Z" fill="#FF6252"/>
<path d="M38.5775 13.4369C38.2575 13.4369 37.9375 13.2769 37.9375 12.7969C37.9375 12.4769 38.0975 11.9969 38.4175 11.9969C39.5375 11.8369 40.4975 10.8769 40.6575 9.75693C40.6575 9.43693 41.1375 9.11693 41.4575 9.27693C41.7775 9.27693 42.0975 9.75693 41.9375 10.0769C41.7775 11.8369 40.4975 13.1169 38.5775 13.4369C38.7375 13.4369 38.7375 13.4369 38.5775 13.4369Z" fill="#FF6252"/>
</svg>
