<svg width="76" height="76" viewBox="0 0 76 76" fill="none" xmlns="http://www.w3.org/2000/svg">
<path d="M67.3339 41.3165H25.1094L43.5183 10.0836C44.7322 8.02421 47.711 8.02421 48.9249 10.0836L67.3339 41.3165Z" fill="#C48A57"/>
<path d="M67.3293 41.3091H59.589L42.3516 12.0535L43.5127 10.0767C44.7366 8.0161 47.707 8.0161 48.9205 10.0767L67.3293 41.3091Z" fill="#B77748"/>
<path d="M55.4978 21.2356L48.9248 10.0836C47.7111 8.02421 44.7323 8.02421 43.5183 10.0836L36.9453 21.2356H55.4978Z" fill="#FFC776"/>
<path d="M55.4994 21.2266H47.7594L42.3516 12.0535L43.5127 10.0767C44.7366 8.0161 47.707 8.0161 48.9205 10.0767L55.4994 21.2266Z" fill="#F4B25B"/>
<path d="M43.5531 41.3109H8.34375L23.2452 16.0289C24.459 13.9695 27.4379 13.9695 28.6517 16.0289L43.5531 41.3109Z" fill="#C48A57"/>
<path d="M43.5549 41.3107H37.4255L22.8867 16.6469L23.2422 16.0298C24.4557 13.9692 27.4368 13.9692 28.65 16.0298L43.5549 41.3107Z" fill="#B77748"/>
<path d="M33.4824 24.2251L28.6515 16.0289C27.4378 13.9695 24.459 13.9695 23.245 16.0289L18.4141 24.2251H33.4824Z" fill="#FFC776"/>
<path d="M33.4822 24.2301H27.353L22.8867 16.6469L23.2422 16.0298C24.4557 13.9692 27.4368 13.9692 28.65 16.0298L33.4822 24.2301Z" fill="#F4B25B"/>
<path d="M16.2725 37.7112C16.2014 37.7112 16.1287 37.6928 16.063 37.6541C15.8665 37.5377 15.8008 37.2846 15.9165 37.0875L20.9363 28.571C21.0521 28.3749 21.3058 28.3081 21.5029 28.4245C21.6994 28.5408 21.7651 28.7939 21.6494 28.991L16.6296 37.5076C16.552 37.6379 16.4142 37.7112 16.2725 37.7112Z" fill="white"/>
<path d="M39.917 26.4696C39.846 26.4696 39.7733 26.4513 39.7076 26.4126C39.511 26.2962 39.4453 26.0431 39.5611 25.846L44.0423 18.2428C44.1586 18.0468 44.4112 17.98 44.6089 18.0964C44.8054 18.2127 44.8711 18.4658 44.7553 18.6629L40.2741 26.2661C40.1966 26.3964 40.0587 26.4696 39.917 26.4696Z" fill="white"/>
<path d="M70.8571 37.9141C72.1679 37.9141 73.2138 39.026 73.1255 40.3338C71.8822 58.7484 56.5549 73.2977 37.8507 73.2977C19.1205 73.2977 3.79153 58.7484 2.54818 40.3338C2.45988 39.026 3.50573 37.9141 4.81655 37.9141H70.8571Z" fill="#66CCFF"/>
<path d="M70.8526 37.9219C72.1634 37.9219 73.2092 39.0337 73.121 40.3416C71.8785 58.7559 56.5601 73.2957 37.8512 73.2957C26.1995 73.2957 15.8614 67.6681 9.42969 58.9832C15.3177 63.3766 22.61 65.981 30.5249 65.981C47.5212 65.981 61.7431 53.9443 65.1062 37.9219L70.8526 37.9219Z" fill="#42C1F4"/>
<path d="M10.2117 44.6366C9.31479 46.7699 6.90156 47.876 4.96768 48.9723C4.59512 48.8321 4.49031 48.7927 4.11774 48.6524C3.27891 46.0105 2.74231 43.2263 2.5482 40.349C2.45978 39.0383 3.50307 37.9219 4.81677 37.9219L9.74735 37.9219C10.2229 40.2205 11.1061 42.5191 10.2117 44.6366Z" fill="#66CC33"/>
<path d="M49.6068 71.2843C45.9235 72.5929 41.9792 73.3033 37.8477 73.3033C33.3986 73.3033 29.1175 72.4808 25.1914 70.9665C26.201 68.7605 27.2854 66.5919 28.6684 64.6103C30.5196 61.9744 33.0057 59.6562 36.0344 58.5532C37.212 58.1233 38.6328 57.8989 39.6798 58.5906C40.2033 58.9458 40.5958 59.4692 41.138 59.7684C42.1476 60.3105 43.3626 59.9179 44.5032 59.8431C45.6059 59.7497 46.7651 59.9927 47.6812 60.6097C48.5972 61.2265 49.2699 62.2361 49.3822 63.339C49.5132 64.5355 48.9897 65.7133 48.8026 66.9098C48.5597 68.4054 48.8774 69.957 49.6068 71.2843Z" fill="#66CC33"/>
<path d="M49.6068 71.2809C45.9235 72.5896 41.9792 73.3 37.8477 73.3C33.3986 73.3 29.1175 72.4774 25.1914 70.9631C25.9952 69.2246 26.8363 67.5046 27.8459 65.8781C28.725 65.9343 29.6223 65.9717 30.5196 65.9717C37.0066 65.9717 43.101 64.2144 48.3352 61.1484C48.9148 61.7467 49.3074 62.5131 49.3822 63.3357C49.5132 64.5322 48.9897 65.7099 48.8026 66.9064C48.5597 68.402 48.8774 69.9537 49.6068 71.2809Z" fill="#5DBC26"/>
<path d="M55.543 37.9141C56.3529 38.586 57.2657 39.1584 58.1548 39.679C59.9601 40.7462 61.8255 41.8351 63.8516 42.2926C64.8546 42.5104 65.9177 42.5539 66.8605 42.1183C68.2851 41.5084 69.1476 40.0057 70.1104 38.7207C70.3176 38.4393 70.541 38.1747 70.7691 37.9141L55.543 37.9141Z" fill="#66CC33"/>
<path d="M70.7644 37.9141C70.5386 38.1738 70.3127 38.4335 70.1094 38.7159C69.1494 40.0035 68.2797 41.5056 66.8567 42.1154C65.9305 42.5559 64.8689 42.5107 63.875 42.2849C64.3833 40.8618 64.7898 39.4048 65.106 37.9141H70.7644Z" fill="#5DBC26"/>
<path d="M51.4246 40.4479C50.9137 39.6685 50.54 38.809 50.287 37.9141H25.1557C24.4241 38.8764 23.5306 39.7137 22.504 40.3545C20.0175 41.8874 16.7459 42.4669 15.2128 44.9346C13.6987 47.3837 14.6335 50.6552 16.2972 53.0295C17.4939 54.7494 19.1013 56.2449 21.0644 56.974C23.0463 57.6844 25.4204 57.4975 27.0467 56.1702C28.1685 55.2355 28.8413 53.8894 29.7578 52.749C32.0197 49.9075 35.9641 48.524 39.5158 49.3093C41.4977 49.7579 43.2739 50.8048 45.1435 51.6087C47.0128 52.3938 49.1251 52.9546 51.0695 52.3564C52.6021 51.8704 53.8737 50.6739 54.4907 49.1971C55.1074 47.7014 55.0325 45.9628 54.3598 44.5047C53.6492 42.9905 52.3593 41.8314 51.4246 40.4479Z" fill="#66CC33"/>
<path d="M32.7956 43.3116H30.398C30.1696 43.3116 29.9844 43.1263 29.9844 42.898C29.9844 42.6696 30.1696 42.4844 30.398 42.4844H32.7956C33.0239 42.4844 33.2092 42.6696 33.2092 42.898C33.2092 43.1263 33.0239 43.3116 32.7956 43.3116Z" fill="white"/>
<path d="M27.2734 43.3116H8.24173C8.01339 43.3116 7.82812 43.1263 7.82812 42.898C7.82812 42.6696 8.01339 42.4844 8.24173 42.4844H27.2734C27.5017 42.4844 27.687 42.6696 27.687 42.898C27.687 43.1263 27.5017 43.3116 27.2734 43.3116Z" fill="white"/>
<path d="M52.0454 29.4942C49.6852 29.4942 47.7539 27.5742 47.7539 25.2138C47.7539 23.0001 49.4367 21.1818 51.5825 20.9446C51.4697 20.538 51.4132 20.0975 51.4132 19.6571C51.4132 16.7997 53.7396 14.4844 56.5857 14.4844C58.8898 14.4844 60.8436 15.9865 61.4988 18.0759C62.1765 16.9465 63.4187 16.1898 64.8305 16.1898C66.9765 16.1898 68.7043 17.9178 68.7043 20.0637C68.7043 20.3573 68.6706 20.6509 68.6028 20.9333C68.6817 20.922 68.7608 20.922 68.8399 20.922C71.2118 20.922 73.1318 22.842 73.1318 25.2138C73.1318 27.5742 71.2118 29.4942 68.8399 29.4942H52.0454Z" fill="#C9EAF5"/>
<path d="M73.1308 25.2126C73.1308 27.5731 71.2109 29.4931 68.839 29.4931H52.0445C50.1133 29.4931 48.4757 28.2168 47.9336 26.455C48.329 26.568 48.7467 26.6357 49.1874 26.6357H65.9816C68.3534 26.6357 70.2734 24.7157 70.2734 22.3552C70.2734 21.9148 70.2056 21.4968 70.0925 21.1016C71.8544 21.6437 73.1308 23.2813 73.1308 25.2126Z" fill="#A9DCEA"/>
<path d="M7.01559 30.604C6.55891 30.604 6.18839 30.2335 6.18839 29.7768C6.18839 28.2236 4.92389 26.9591 3.37017 26.9591C2.91349 26.9591 2.54297 26.5886 2.54297 26.1319C2.54297 25.6752 2.91349 25.3047 3.37017 25.3047C4.87218 25.3047 6.20401 26.049 7.01559 27.1885C7.82718 26.049 9.15846 25.3047 10.6605 25.3047C11.1172 25.3047 11.4877 25.6752 11.4877 26.1319C11.4877 26.5886 11.1172 26.9591 10.6605 26.9591C9.10677 26.9591 7.8428 28.2236 7.8428 29.7768C7.8428 30.2335 7.47228 30.604 7.01559 30.604Z" fill="#666666"/>
<path d="M62.0346 11.4644C61.5779 11.4644 61.2074 11.0939 61.2074 10.6372C61.2074 9.08297 59.9434 7.81847 58.3897 7.81847C57.933 7.81847 57.5625 7.44795 57.5625 6.99127C57.5625 6.53458 57.933 6.16406 58.3897 6.16406C59.8917 6.16406 61.223 6.90833 62.0346 8.0479C62.8462 6.90834 64.178 6.16406 65.68 6.16406C66.1367 6.16406 66.5072 6.53458 66.5072 6.99127C66.5072 7.44795 66.1367 7.81847 65.68 7.81847C64.1263 7.81847 62.8618 9.08297 62.8618 10.6372C62.8618 11.0939 62.4913 11.4644 62.0346 11.4644Z" fill="#666666"/>
<path d="M34.1097 8.57758C33.6531 8.57758 33.2825 8.20706 33.2825 7.75037C33.2825 5.87946 31.7606 4.35754 29.8897 4.35754C29.433 4.35754 29.0625 3.98701 29.0625 3.53033C29.0625 3.07365 29.433 2.70312 29.8897 2.70312C31.6524 2.70312 33.2066 3.61111 34.1097 4.9844C35.0129 3.61111 36.5671 2.70312 38.3298 2.70312C38.7865 2.70312 39.157 3.07365 39.157 3.53033C39.157 3.98701 38.7865 4.35754 38.3298 4.35754C36.4589 4.35754 34.937 5.87946 34.937 7.75037C34.937 8.20706 34.5664 8.57758 34.1097 8.57758Z" fill="#666666"/>
<path d="M17.9338 9.3712C17.9338 13.0498 14.9443 16.0393 11.2656 16.0393C7.58709 16.0393 4.59766 13.0498 4.59766 9.3712C4.59766 5.69255 7.58709 2.70312 11.2656 2.70312C14.9443 2.70312 17.9338 5.69256 17.9338 9.3712Z" fill="#FFEB33"/>
<path d="M17.9327 9.36703C17.9327 13.0417 14.9408 16.0336 11.266 16.0336C8.68386 16.0336 6.43692 14.5562 5.33203 12.4086C6.23826 12.8679 7.26861 13.1286 8.34881 13.1286C12.0359 13.1286 15.0276 10.1367 15.0276 6.46201C15.0276 5.38197 14.767 4.35154 14.2952 3.44531C16.4553 4.5378 17.9327 6.78481 17.9327 9.36703Z" fill="#F9DF21"/>
<path d="M7.30827 8.50988C7.26626 8.50988 7.22318 8.50342 7.18118 8.48942C6.9636 8.41941 6.84458 8.18676 6.9146 7.96918C7.34167 6.64867 8.37298 5.57158 9.67356 5.08689C9.88898 5.01149 10.1265 5.11597 10.2056 5.33031C10.2854 5.54465 10.176 5.78269 9.96222 5.86239C8.89644 6.25877 8.05146 7.14198 7.70194 8.22338C7.64539 8.39895 7.48275 8.50988 7.30827 8.50988Z" fill="white"/>
</svg>
