<svg width="28" height="24" viewBox="0 0 28 24" fill="none" xmlns="http://www.w3.org/2000/svg">
<path d="M26.9678 18.2881V10.5021L27.19 10.3728C27.6616 10.099 27.9428 9.61059 27.9428 9.0659C27.9428 8.52121 27.6616 8.03184 27.19 7.75809L15.7928 1.13746C14.8338 0.578711 13.6403 0.579648 12.6813 1.13746L1.28312 7.75902C0.8125 8.03277 0.53125 8.52121 0.53125 9.0659C0.53125 9.61059 0.8125 10.099 1.28312 10.3737L4.73875 12.3818V17.0496C4.73875 18.1334 5.32188 19.1412 6.25938 19.6821L11.0163 22.4243C12.0091 22.9962 13.1228 23.2831 14.2366 23.2831C15.3503 23.2831 16.4631 22.9971 17.4569 22.4243L22.2128 19.6821C23.1513 19.1421 23.7344 18.1334 23.7344 17.0496V12.3809L25.2803 11.4828V18.2881C24.8838 18.5581 24.6231 19.0128 24.6231 19.5293C24.6231 20.3581 25.2953 21.0303 26.1241 21.0303C26.9528 21.0303 27.625 20.3581 27.625 19.5293C27.625 19.0137 27.3644 18.559 26.9678 18.2881ZM22.0478 17.0487H22.0469C22.0469 17.5306 21.7891 17.9787 21.3709 18.2187L16.615 20.9609C15.1488 21.8056 13.3253 21.8056 11.86 20.9609L7.10313 18.2187C6.68594 17.9787 6.42719 17.5306 6.42719 17.0487V13.3615L12.6813 16.9953C13.1613 17.2737 13.6994 17.4134 14.2375 17.4134C14.7756 17.4134 15.3137 17.2746 15.7937 16.9953L22.0478 13.3615V17.0487ZM14.9453 15.5365C14.5084 15.7906 13.9656 15.7906 13.5288 15.5365L2.39219 9.0659L13.5278 2.59527C13.9647 2.34121 14.5075 2.34121 14.9444 2.59527L26.0809 9.06496L14.9453 15.5365Z" fill="black"/>
</svg>
