<svg width="30" height="30" viewBox="0 0 30 30" fill="none" xmlns="http://www.w3.org/2000/svg">
<path d="M15.5797 21.3672H14.4219C14.1414 21.3672 13.9141 21.1398 13.9141 20.8594C13.9141 20.579 14.1414 20.3516 14.4219 20.3516H15.5797C15.8602 20.3516 16.0876 20.579 16.0876 20.8594C16.0876 21.1398 15.8602 21.3672 15.5797 21.3672Z" fill="black"/>
<path d="M15.0106 23.5298C14.7956 23.5298 14.5991 23.3888 14.5302 23.1852C14.4634 22.9877 14.5265 22.7617 14.6887 22.6295C14.8554 22.4936 15.0956 22.4775 15.2785 22.591C15.4561 22.7012 15.5502 22.9163 15.5088 23.1215C15.4614 23.3559 15.2498 23.5298 15.0106 23.5298Z" fill="black"/>
<path d="M25.4289 3.3125H4.57111C3.15339 3.3125 2 4.46645 2 5.88488V20.9568C2 22.3752 3.15339 23.5292 4.57111 23.5292H9.78786V25.6715H7.9668C7.68633 25.6715 7.45898 25.8989 7.45898 26.1793C7.45898 26.4598 7.68633 26.6872 7.9668 26.6872H22.0332C22.3136 26.6872 22.541 26.4598 22.541 26.1793C22.541 25.8989 22.3136 25.6715 22.0332 25.6715H20.2121V23.5292H25.4289C26.8466 23.5292 28 22.3752 28 20.9568V5.88488C28 4.46645 26.8466 3.3125 25.4289 3.3125ZM3.01562 5.88488C3.01562 5.02647 3.71341 4.32812 4.57111 4.32812H25.4289C26.2866 4.32812 26.9844 5.02647 26.9844 5.88488V18.4464H3.01562V5.88488ZM26.9844 20.9568C26.9844 21.8152 26.2866 22.5136 25.4289 22.5136H17.2956C17.0152 22.5136 16.7878 22.741 16.7878 23.0214C16.7878 23.3018 17.0152 23.5292 17.2956 23.5292H19.1965V25.6715H10.8035V23.5292H12.7044C12.9848 23.5292 13.2122 23.3018 13.2122 23.0214C13.2122 22.741 12.9848 22.5136 12.7044 22.5136H4.57111C3.71341 22.5136 3.01562 21.8152 3.01562 20.9568V19.462H26.9844V20.9568Z" fill="black"/>
<path d="M25.0388 15.5274H18.0312C17.7508 15.5274 17.5234 15.3 17.5234 15.0196V12.6328C17.5234 12.3523 17.7508 12.125 18.0312 12.125H25.0387C25.3191 12.125 25.5465 12.3523 25.5465 12.6328V15.0196C25.5466 15.3001 25.3192 15.5274 25.0388 15.5274ZM18.5391 14.5118H24.5309V13.1406H18.5391V14.5118Z" fill="black"/>
<path d="M25.0388 10.6524H18.0312C17.7508 10.6524 17.5234 10.4251 17.5234 10.1446V7.75781C17.5234 7.4774 17.7508 7.25 18.0312 7.25H25.0387C25.3191 7.25 25.5465 7.4774 25.5465 7.75781V10.1446C25.5466 10.4251 25.3192 10.6524 25.0388 10.6524ZM18.5391 9.63682H24.5309V8.26563H18.5391V9.63682Z" fill="black"/>
<path d="M10.2253 14.4583C8.53516 14.4583 7.16016 13.0833 7.16016 11.3932C7.16016 9.70313 8.53516 8.32812 10.2253 8.32812C11.9154 8.32812 13.2904 9.70313 13.2904 11.3932C13.2904 13.0833 11.9154 14.4583 10.2253 14.4583ZM10.2253 9.3437C9.09518 9.3437 8.17578 10.2631 8.17578 11.3932C8.17578 12.5233 9.09518 13.4427 10.2253 13.4427C11.3553 13.4427 12.2747 12.5233 12.2747 11.3932C12.2747 10.2631 11.3553 9.3437 10.2253 9.3437Z" fill="black"/>
<path d="M10.2239 17.1468C9.86823 17.1468 9.51282 17.1143 9.16756 17.0503C8.97357 17.0143 8.81803 16.8693 8.76857 16.6783L8.67193 16.3048C8.38816 16.2158 8.11293 16.1025 7.84882 15.9659L7.54296 16.1615C7.37203 16.2708 7.15235 16.2679 6.98432 16.154C6.37733 15.7424 5.86048 15.2264 5.44813 14.6206C5.33362 14.4523 5.33062 14.2319 5.44062 14.0606L5.63587 13.7564C5.49927 13.4931 5.38593 13.2187 5.29696 12.936L4.92234 12.8394C4.73125 12.7901 4.58602 12.6346 4.54991 12.4406C4.48568 12.0956 4.45312 11.7407 4.45312 11.3857C4.45312 11.0307 4.48568 10.6758 4.54991 10.3308C4.58602 10.1368 4.73125 9.98123 4.92234 9.93192L5.29691 9.83539C5.38593 9.55259 5.49922 9.27822 5.63582 9.01497L5.44057 8.71079C5.33063 8.5395 5.33357 8.31906 5.44808 8.15082C5.86048 7.54485 6.37733 7.02891 6.98427 6.61738C7.1522 6.50353 7.37188 6.50053 7.54286 6.60986L7.84871 6.80552C8.11278 6.66892 8.38806 6.55553 8.67188 6.46656L8.76852 6.09311C8.81798 5.90208 8.97357 5.75704 9.16756 5.72109C9.85859 5.59297 10.5891 5.59297 11.2802 5.72109C11.4741 5.75704 11.6298 5.90208 11.6792 6.09311L11.7758 6.46656C12.0596 6.55553 12.3349 6.66887 12.5989 6.80552L12.9048 6.60986C13.0758 6.50058 13.2955 6.50348 13.4634 6.61738C14.0703 7.02891 14.5872 7.5449 14.9996 8.15077C15.1141 8.31906 15.1171 8.5395 15.0071 8.71084L14.8118 9.01497C14.9484 9.27822 15.0617 9.55254 15.1508 9.83539L15.5254 9.93192C15.7165 9.98123 15.8617 10.1367 15.8978 10.3308C15.962 10.6757 15.9946 11.0306 15.9946 11.3857C15.9946 11.7407 15.962 12.0956 15.8978 12.4406C15.8617 12.6346 15.7165 12.7901 15.5254 12.8394L15.1508 12.936C15.0618 13.2188 14.9484 13.4932 14.8118 13.7564L15.0071 14.0605C15.117 14.2319 15.1141 14.4523 14.9996 14.6206C14.5872 15.2264 14.0704 15.7424 13.4634 16.154C13.2955 16.2678 13.0758 16.2709 12.9048 16.1615L12.5989 15.9659C12.3348 16.1025 12.0595 16.2158 11.7758 16.3048L11.6791 16.6782C11.6297 16.8692 11.4741 17.0143 11.2802 17.0502C10.9349 17.1143 10.5795 17.1468 10.2239 17.1468ZM9.66775 16.0991C10.0353 16.1418 10.4126 16.1418 10.7801 16.0991L10.8658 15.7679C10.9124 15.5876 11.054 15.4474 11.2347 15.4024C11.6297 15.304 12.0071 15.1481 12.3563 14.939C12.5215 14.84 12.7285 14.843 12.8908 14.9469L13.16 15.1191C13.46 14.8841 13.7291 14.6155 13.9646 14.3162L13.7929 14.0489C13.6886 13.8863 13.6855 13.6786 13.785 13.5129C13.9944 13.1645 14.1505 12.788 14.249 12.3938C14.2942 12.2132 14.4346 12.0717 14.6149 12.0252L14.9471 11.9396C14.9684 11.7564 14.9792 11.5711 14.9792 11.3855C14.9792 11.2 14.9684 11.0146 14.9471 10.8315L14.6149 10.7459C14.4346 10.6994 14.2942 10.558 14.249 10.3773C14.1505 9.98306 13.9944 9.60657 13.785 9.25821C13.6855 9.09261 13.6886 8.88486 13.7929 8.72226L13.9646 8.4549C13.7291 8.15554 13.46 7.88691 13.16 7.65205L12.8908 7.82425C12.7285 7.92804 12.5216 7.93109 12.3563 7.83207C12.0072 7.62305 11.6298 7.4671 11.2347 7.36869C11.054 7.3237 10.9124 7.18344 10.8658 7.00322L10.7801 6.67202C10.4124 6.62926 10.0355 6.62926 9.66775 6.67202L9.58203 7.00322C9.53536 7.18349 9.39384 7.32375 9.21311 7.36874C8.81803 7.46715 8.44062 7.623 8.0915 7.83207C7.92626 7.93099 7.71927 7.92794 7.55703 7.82425L7.28779 7.65205C6.98787 7.88691 6.71868 8.15554 6.48326 8.4549L6.6549 8.72231C6.75925 8.88486 6.7623 9.09261 6.66282 9.25821C6.4534 9.60662 6.2973 9.98311 6.19883 10.3772C6.15369 10.558 6.01328 10.6994 5.83295 10.7459L5.50079 10.8315C5.47946 11.0146 5.4687 11.2 5.4687 11.3855C5.4687 11.571 5.47946 11.7564 5.50079 11.9396L5.83295 12.0252C6.01328 12.0717 6.15364 12.2132 6.19883 12.3939C6.2973 12.7879 6.4534 13.1645 6.66287 13.513C6.76235 13.6786 6.75925 13.8863 6.65495 14.0488L6.48331 14.3162C6.71868 14.6155 6.98787 14.8842 7.28784 15.1191L7.55703 14.9469C7.71932 14.8431 7.92631 14.84 8.09155 14.939C8.44077 15.1481 8.81813 15.304 9.21316 15.4024C9.39384 15.4474 9.53541 15.5876 9.58208 15.7679L9.66775 16.0991Z" fill="black"/>
</svg>
