<svg width="31" height="30" viewBox="0 0 31 30" fill="none" xmlns="http://www.w3.org/2000/svg">
<g clip-path="url(#clip0_8836_12210)">
<path d="M16.2427 14.2578C16.0136 14.0287 15.6427 14.0287 15.4136 14.2578C15.1851 14.4863 15.1851 14.8572 15.4136 15.0863C15.6427 15.3148 16.0136 15.3148 16.2427 15.0863C16.4712 14.8572 16.4712 14.4863 16.2427 14.2578Z" fill="black"/>
<path d="M23.699 6.80398C22.5541 5.65912 20.7006 5.65906 19.5557 6.80398C18.4137 7.94591 18.4137 9.8045 19.5558 10.9474C20.6982 12.089 22.5568 12.0895 23.699 10.9473C24.8438 9.80245 24.844 7.94896 23.699 6.80398ZM22.8704 10.1186C22.1852 10.8038 21.07 10.8038 20.3845 10.1187C19.6992 9.43302 19.6992 8.31775 20.3844 7.63261C21.0713 6.94572 22.1834 6.9456 22.8704 7.63261C23.5573 8.31945 23.5574 9.43161 22.8704 10.1186Z" fill="black"/>
<path d="M30.3272 0.171627C30.2121 0.0566072 30.0551 -0.00573643 29.8919 0.000415898C29.7594 0.00516198 26.605 0.131959 22.8553 1.45729C19.8506 2.51818 17.3462 4.03711 15.4114 5.97187C14.9779 6.4054 14.556 6.86513 14.1524 7.34273C12.2394 6.21667 10.7065 6.56976 9.73741 7.08837C7.50611 8.28251 6.125 11.5248 6.125 13.844C6.12518 14.0809 6.26797 14.2946 6.48687 14.3853C6.55935 14.4153 6.63553 14.4299 6.71099 14.4299C6.86351 14.4299 7.01334 14.3703 7.12543 14.2583C8.30216 13.0816 9.75359 13.1552 10.2277 13.2175L10.4329 13.4227C10.0291 14.3836 9.70378 15.3392 9.46519 16.2685C9.37906 16.6049 9.40812 16.9608 9.53615 17.2863C8.97201 17.5463 8.42773 17.928 7.95382 18.4019C6.44557 19.9102 6.1393 23.5861 6.12699 23.7418C6.11352 23.9127 6.17551 24.081 6.29674 24.2022C6.40707 24.3125 6.55631 24.3738 6.71099 24.3738C6.72635 24.3738 6.74176 24.3733 6.75717 24.372C6.91291 24.3598 10.5888 24.0535 12.0971 22.5453C12.5708 22.0715 12.9525 21.5273 13.2125 20.9633C13.5571 21.0988 13.9119 21.1155 14.2308 21.0338C15.1598 20.7952 16.1152 20.47 17.0763 20.0662L17.2815 20.2714C17.3437 20.7456 17.4173 22.197 16.2407 23.3736C16.0731 23.5412 16.023 23.7932 16.1137 24.0121C16.2043 24.2311 16.418 24.3738 16.655 24.3738C18.9741 24.3738 22.2164 22.9927 23.4105 20.7614C23.9291 19.7924 24.2822 18.2595 23.1562 16.3465C23.6335 15.943 24.0933 15.5211 24.527 15.0874C26.4618 13.1526 27.9807 10.6482 29.0416 7.64372C30.3669 3.89385 30.4937 0.739399 30.4984 0.606977C30.5043 0.44438 30.4422 0.286704 30.3272 0.171627ZM7.43504 12.5837C7.79902 10.8222 8.85622 8.88925 10.2906 8.12155C11.2491 7.60862 12.2968 7.6589 13.4108 8.26868C12.4618 9.51684 11.6367 10.8616 10.949 12.2816C10.9403 12.2762 10.8348 12.1436 10.6389 12.0994C10.5583 12.0812 9.00798 11.7477 7.43504 12.5837ZM11.2685 21.7166C10.4628 22.5222 8.57287 22.9471 7.37832 23.1206C7.55187 21.926 7.97685 20.0362 8.78246 19.2306C9.23363 18.7794 9.75675 18.4373 10.2826 18.2447L12.2544 20.2165C12.0617 20.7423 11.7197 21.2654 11.2685 21.7166ZM13.9398 19.8986C13.7702 19.942 13.5738 19.8783 13.4278 19.7325C12.6697 18.9744 12.3732 18.6779 12.2801 18.5849C12.1095 18.4143 11.6911 17.9959 10.7669 17.0716C10.6208 16.9252 10.557 16.7288 10.6003 16.5596C10.788 15.8287 11.0334 15.0788 11.3319 14.3217L16.1773 19.1671C15.4201 19.4656 14.6704 19.711 13.9398 19.8986ZM22.3775 20.2084C21.6098 21.6427 19.6769 22.7 17.9154 23.0639C18.4771 22.0071 18.6009 20.6617 18.3957 19.8459C18.348 19.6564 18.2244 19.5611 18.2175 19.55C19.6374 18.8622 20.9821 18.0372 22.2303 17.0881C22.8401 18.2022 22.8903 19.2501 22.3775 20.2084ZM23.6985 14.2588C23.1705 14.7867 22.602 15.2968 22.0087 15.7747C20.5824 16.9231 19.0126 17.8959 17.3377 18.6703L11.8287 13.1614C12.6031 11.4865 13.5759 9.91663 14.7242 8.49052C15.2026 7.89679 15.7126 7.3282 16.2403 6.8005C17.9761 5.06461 20.2164 3.68308 22.9007 2.68863L27.8104 7.59831C26.8161 10.2825 25.4345 12.5228 23.6985 14.2588ZM28.232 6.36251L24.1365 2.26705C26.3678 1.57401 28.309 1.3145 29.2779 1.22121C29.1845 2.19029 28.925 4.13144 28.232 6.36251Z" fill="black"/>
<path d="M14.583 24.2028C14.3541 23.974 13.9831 23.9741 13.7543 24.2029L12.0973 25.8605C11.8686 26.0894 11.8686 26.4604 12.0974 26.6892C12.3263 26.9179 12.6974 26.9179 12.9261 26.689L14.5831 25.0314C14.8119 24.8026 14.8118 24.4315 14.583 24.2028Z" fill="black"/>
<path d="M6.29856 15.9139C6.06981 15.685 5.69886 15.685 5.46993 15.9137L3.81232 17.5708C3.58345 17.7995 3.58339 18.1705 3.81214 18.3994C4.04083 18.6281 4.41179 18.6284 4.64077 18.3995L6.29839 16.7425C6.52726 16.5137 6.52731 16.1427 6.29856 15.9139Z" fill="black"/>
<path d="M10.4421 25.031C10.2134 24.8022 9.84231 24.8022 9.61345 25.0309L5.64431 28.9995C5.41545 29.2283 5.41545 29.5993 5.64426 29.8281C5.87295 30.0569 6.24402 30.057 6.47289 29.8282L10.442 25.8596C10.6709 25.6308 10.6709 25.2598 10.4421 25.031Z" fill="black"/>
<path d="M5.75458 25.031C5.52583 24.8022 5.15476 24.8022 4.92595 25.0309L0.956814 28.9995C0.727947 29.2283 0.727947 29.5993 0.956755 29.8281C1.18545 30.0569 1.55652 30.057 1.78539 29.8282L5.75452 25.8596C5.98339 25.6308 5.98339 25.2598 5.75458 25.031Z" fill="black"/>
<path d="M5.46878 20.0622C5.24003 19.8334 4.86895 19.8334 4.64015 20.0622L0.671599 24.0314C0.442791 24.2602 0.442791 24.6312 0.671657 24.8601C0.900466 25.0889 1.27148 25.0889 1.50029 24.86L5.46884 20.8909C5.69764 20.662 5.69764 20.291 5.46878 20.0622Z" fill="black"/>
<path d="M18.7272 11.7732C18.4984 11.5444 18.1275 11.5444 17.8986 11.7732L17.07 12.6017C16.8412 12.8305 16.8412 13.2015 17.07 13.4304C17.2989 13.6592 17.6699 13.6592 17.8987 13.4304L18.7272 12.6019C18.9561 12.373 18.9561 12.002 18.7272 11.7732Z" fill="black"/>
</g>
<defs>
<clipPath id="clip0_8836_12210">
<rect width="30" height="30" fill="white" transform="translate(0.5)"/>
</clipPath>
</defs>
</svg>
