<svg width="30" height="30" viewBox="0 0 30 30" fill="none" xmlns="http://www.w3.org/2000/svg">
<g clip-path="url(#clip0_8836_12245)">
<path fill-rule="evenodd" clip-rule="evenodd" d="M15.4163 9.11926C14.2467 9.11926 13.8929 7.4519 13.485 7.03806C12.7293 7.03806 11.8117 7.42791 11.2299 6.21038C10.0843 6.88812 9.17866 7.93172 8.68086 9.17324C11.8896 9.70104 9.75444 11.9622 9.94037 12.424C10.0723 12.7479 11.3678 12.9218 11.7277 13.7615C12.0396 14.4992 11.3738 15.7647 10.876 16.4185C11.3498 16.7423 11.8656 17.0002 12.4174 17.1802C11.8476 15.7887 12.6873 14.931 13.575 14.3253C13.611 14.3013 13.6589 14.2713 13.6829 14.2473C13.605 13.4916 12.2915 11.1705 14.2827 11.0685C15.1104 11.0265 16.088 11.6503 16.8917 11.2304C17.6774 10.8226 18.0852 9.803 19.0988 10.0069C19.3627 10.0609 19.7526 10.2228 20.2864 10.4987C20.1664 9.71903 19.8965 8.98731 19.5067 8.33356C18.673 8.65144 17.3775 8.2496 16.6998 8.64544C16.13 8.98131 15.7581 9.11926 15.4163 9.11926ZM14.3007 28C14.1867 28 14.0728 27.94 14.0068 27.8441C12.4474 25.523 10.5581 23.0939 8.90277 20.5928C5.37013 20.0231 2.61719 18.8835 2.61719 17.2221C2.61719 16.2205 3.64879 15.3329 5.61603 14.6431C5.15421 13.4796 4.87832 12.382 4.87832 11.4224C4.87832 6.22837 9.10669 2 14.3007 2C19.5007 2 23.7231 6.22837 23.7231 11.4224C23.7231 13.7195 22.1517 16.7783 20.2384 19.7772C22.3676 19.3753 24.023 18.7696 24.8027 18.0558C24.3288 17.9239 23.813 17.8459 23.7351 17.2521C23.6931 16.9223 23.843 16.6104 24.1369 16.4424L25.4204 15.6987C25.8043 15.4828 26.3081 15.6148 26.53 15.9986L27.2737 17.2821C27.6276 17.8999 27.0338 18.6496 26.3621 18.4697L25.5824 18.2597C24.7307 19.3033 22.5655 20.131 19.6986 20.5988C18.0433 23.0999 16.16 25.5289 14.5946 27.8441C14.5286 27.94 14.4206 28 14.3007 28ZM8.36898 19.7772C7.40335 18.2657 6.52169 16.7423 5.89193 15.3029C4.27855 15.8607 3.32492 16.5684 3.32492 17.2221C3.32492 18.1698 5.24418 19.1834 8.36898 19.7772ZM14.3007 2.71373C9.49654 2.71373 5.59204 6.61822 5.59204 11.4224C5.59204 14.0434 7.91915 17.8039 9.32261 19.9391C12.3155 20.3949 16.2379 20.3949 19.2848 19.9391C21.306 16.8623 23.0153 13.6895 23.0153 11.4224C23.0153 6.61822 19.1048 2.71373 14.3007 2.71373ZM9.84441 20.7248C11.3258 22.92 12.8852 24.9652 14.3007 27.0164C15.7161 24.9712 17.2755 22.926 18.757 20.7308C15.992 21.0847 12.6693 21.0847 9.84441 20.7248ZM25.5164 17.51C27.0038 17.8399 26.9618 18.1998 25.9122 16.3525C25.8822 16.2985 25.8223 16.2925 25.7803 16.3165C24.023 17.3181 24.0469 17.1142 25.5164 17.51ZM14.4146 4.65698C17.8993 4.72295 21.0661 7.49988 21.0661 11.4164C21.0721 15.1649 18.0073 18.2118 14.2827 18.1878C10.798 18.1638 7.56528 15.4228 7.5353 11.4704C7.50531 7.65582 10.6841 4.58501 14.4146 4.65698ZM14.3007 5.3707C13.431 5.3707 12.6093 5.55063 11.8596 5.88051C12.2195 6.66621 12.8313 6.32434 13.479 6.32434C13.9528 6.32434 14.1448 6.70219 14.5346 7.43391C15.1764 8.64544 15.3923 8.59146 16.3399 8.03368C17.2576 7.49988 18.1632 7.93172 19.0869 7.7158C17.8393 6.10242 16.2679 5.49066 14.3007 5.3707ZM8.45294 9.86298C7.85917 12.0701 8.58489 14.4632 10.3122 15.9806C10.6841 15.4948 11.2419 14.4332 11.0739 14.0434C10.828 13.4676 9.57451 13.4136 9.28062 12.6939C8.80081 11.5123 11.1219 10.2408 8.45294 9.86298ZM13.3351 17.4021C17.2935 18.0618 20.1964 15.087 20.3584 11.3384C18.8769 10.5287 18.775 10.5227 18.1752 11.1165C17.1676 12.1181 16.5318 12.2501 15.1464 11.9142C13.8449 11.5963 13.6349 11.7103 14.1448 13.2877C14.7205 15.063 14.1807 14.4452 13.1791 15.6388C12.8073 16.0766 12.8612 16.6644 13.3351 17.4021Z" fill="#000002"/>
</g>
<defs>
<clipPath id="clip0_8836_12245">
<rect width="26" height="26" fill="white" transform="translate(2 2)"/>
</clipPath>
</defs>
</svg>
