<svg width="29" height="28" viewBox="0 0 29 28" fill="none" xmlns="http://www.w3.org/2000/svg">
<path d="M22.2457 20.0992C22.1482 20.0992 22.0488 20.0683 21.9644 20.0045C21.7572 19.8489 21.716 19.5555 21.8716 19.3483C23.0388 17.7967 23.6557 15.947 23.6557 13.9998C23.6557 13.3886 23.5929 12.7764 23.4691 12.1811C23.4166 11.927 23.5797 11.6795 23.8329 11.627C24.085 11.5745 24.3344 11.7376 24.3869 11.9908C24.5238 12.6489 24.5932 13.3248 24.5932 13.9998C24.5932 16.1514 23.9107 18.197 22.6207 19.9126C22.5279 20.0355 22.3872 20.0992 22.2457 20.0992Z" fill="black"/>
<path d="M5.5775 16.4227C5.36094 16.4227 5.16594 16.2708 5.11906 16.0505C4.97844 15.3783 4.90625 14.6883 4.90625 14.0002C4.90625 11.858 5.58219 9.82083 6.86187 8.11083C7.01656 7.90271 7.31094 7.85958 7.51813 8.01614C7.72531 8.17177 7.76844 8.46521 7.61281 8.67239C6.455 10.2193 5.84375 12.0615 5.84375 14.0002C5.84375 14.6236 5.90844 15.249 6.03687 15.8574C6.09031 16.1105 5.92813 16.359 5.675 16.4124C5.64219 16.4199 5.60938 16.4227 5.5775 16.4227Z" fill="black"/>
<path d="M16.1562 18.6875H13.3438C13.085 18.6875 12.875 18.4775 12.875 18.2188V15.875H10.5312C10.2725 15.875 10.0625 15.665 10.0625 15.4062V12.5938C10.0625 12.335 10.2725 12.125 10.5312 12.125H12.875V9.78125C12.875 9.5225 13.085 9.3125 13.3438 9.3125H16.1562C16.415 9.3125 16.625 9.5225 16.625 9.78125V12.125H18.9688C19.2275 12.125 19.4375 12.335 19.4375 12.5938V15.4062C19.4375 15.665 19.2275 15.875 18.9688 15.875H16.625V18.2188C16.625 18.4775 16.415 18.6875 16.1562 18.6875ZM13.8125 17.75H15.6875V15.4062C15.6875 15.1475 15.8975 14.9375 16.1562 14.9375H18.5V13.0625H16.1562C15.8975 13.0625 15.6875 12.8525 15.6875 12.5938V10.25H13.8125V12.5938C13.8125 12.8525 13.6025 13.0625 13.3438 13.0625H11V14.9375H13.3438C13.6025 14.9375 13.8125 15.1475 13.8125 15.4062V17.75Z" fill="black"/>
<path d="M16.7572 27.1214H11.8438C10.9278 27.1214 10.0334 26.9171 9.185 26.5139L5.90094 24.9183C5.05906 24.5142 4.16188 24.3089 3.23844 24.3089H1.15625C0.8975 24.3089 0.6875 24.0989 0.6875 23.8402C0.6875 23.5814 0.8975 23.3714 1.15625 23.3714H3.23844C4.30344 23.3714 5.33656 23.6077 6.30875 24.0746L9.59188 25.6692C10.31 26.0096 11.0684 26.1839 11.8438 26.1839H16.6634L20.7575 24.4946C20.7575 24.4552 20.8128 24.0924 20.6328 23.7839C20.3581 23.3114 19.7234 23.2964 19.2425 23.3667C18.5441 23.4746 17.9666 23.6686 17.4575 23.8402L17.2644 23.9049C17.0178 23.9846 16.7534 23.8542 16.6719 23.6077C16.5903 23.3621 16.7234 23.0967 16.9691 23.0152L17.1584 22.9524C17.7041 22.7686 18.3219 22.5605 19.1038 22.4405C21.0369 22.1592 21.5197 23.3667 21.6238 23.7427C21.7953 24.3624 21.6528 25.1377 21.1175 25.3617L16.9353 27.0877C16.8791 27.1092 16.8181 27.1214 16.7572 27.1214Z" fill="black"/>
<path d="M10.6578 20.4437C10.4816 20.4437 10.3119 20.3434 10.2322 20.1728C9.31344 18.1956 6.92656 17.9125 5.15188 18.6484C5.09469 18.6718 5.03375 18.684 4.97187 18.684H1.15625C0.8975 18.684 0.6875 18.474 0.6875 18.2153C0.6875 17.9565 0.8975 17.7465 1.15625 17.7465H4.88094C7.41875 16.7387 10.0709 17.604 11.0834 19.7781C11.1922 20.0125 11.0909 20.2918 10.8556 20.4015C10.7909 20.4296 10.7244 20.4437 10.6578 20.4437Z" fill="black"/>
<path d="M15.1019 24.8923C15.041 24.8923 14.9801 24.8801 14.9229 24.8566L9.55475 22.6282C9.31569 22.5288 9.20225 22.2551 9.30163 22.0151C9.401 21.776 9.67569 21.6635 9.91475 21.7619L14.8113 23.7944C15.0166 22.8279 14.4879 22.076 13.2316 21.5557L10.4726 20.4101C10.2335 20.3107 10.1201 20.036 10.2194 19.7969C10.3188 19.5579 10.5935 19.4444 10.8326 19.5438L13.5907 20.6894C15.5229 21.4901 16.2316 22.916 15.5351 24.6007C15.4873 24.716 15.3963 24.8079 15.281 24.8548C15.2238 24.8801 15.1629 24.8923 15.1019 24.8923Z" fill="black"/>
<path d="M9.84892 5.59906C8.37423 5.59906 7.97111 4.59219 7.87736 4.25469C7.70579 3.635 7.84829 2.85969 8.38361 2.63563L12.5658 0.909687C12.622 0.887187 12.683 0.875 12.7439 0.875H17.6564C18.5724 0.875 19.4667 1.07937 20.3152 1.4825L23.5992 3.07812C24.442 3.48219 25.3392 3.6875 26.2627 3.6875H28.3449C28.6036 3.6875 28.8136 3.8975 28.8136 4.15625C28.8136 4.415 28.6036 4.625 28.3449 4.625H26.2627C25.1977 4.625 24.1645 4.38875 23.1924 3.92188L19.9092 2.32812C19.1911 1.98687 18.4327 1.8125 17.6574 1.8125H12.8377L8.74267 3.50187C8.74267 3.54125 8.68736 3.90406 8.86736 4.2125C9.14298 4.685 9.77579 4.7 10.2577 4.62969C10.9561 4.52188 11.5336 4.32781 12.0427 4.15625L12.2358 4.09156C12.4824 4.01094 12.7467 4.14219 12.8283 4.38875C12.9099 4.63438 12.7767 4.89969 12.5311 4.98125L12.3417 5.04406C11.7961 5.22781 11.1783 5.43594 10.3964 5.55594C10.1995 5.58594 10.0167 5.59906 9.84892 5.59906Z" fill="black"/>
<path d="M22.4949 10.6704C20.723 10.6704 19.1462 9.78538 18.4187 8.22163C18.3099 7.98726 18.4112 7.70788 18.6465 7.59819C18.8818 7.48944 19.1602 7.59163 19.2699 7.82601C20.1877 9.80226 22.5737 10.0844 24.3502 9.35038C24.4074 9.32788 24.4683 9.31569 24.5302 9.31569H28.3458C28.6046 9.31569 28.8146 9.52569 28.8146 9.78444C28.8146 10.0432 28.6046 10.2532 28.3458 10.2532H24.6212C23.9087 10.5354 23.1868 10.6704 22.4949 10.6704Z" fill="black"/>
<path d="M18.8513 8.48363C18.7913 8.48363 18.7304 8.47238 18.6713 8.44801L15.9132 7.30238C13.981 6.50176 13.2723 5.07582 13.9688 3.39113C14.0166 3.27582 14.1076 3.18395 14.2229 3.13707C14.3382 3.0902 14.4666 3.08926 14.5819 3.13707L19.9501 5.36551C20.1891 5.46488 20.3026 5.73863 20.2032 5.97863C20.1038 6.21863 19.831 6.3302 19.5901 6.23176L14.6935 4.19926C14.4882 5.16582 15.0169 5.9177 16.2732 6.43801L19.0323 7.58363C19.2713 7.68301 19.3848 7.9577 19.2854 8.19676C19.2094 8.37488 19.0351 8.48363 18.8513 8.48363Z" fill="black"/>
<path d="M20.8596 21.5324C20.7396 21.5324 20.6196 21.4865 20.5277 21.3956C20.3449 21.2127 20.3449 20.9156 20.5277 20.7327C20.7115 20.5499 21.0405 20.5171 21.2234 20.6999C21.4062 20.8827 21.439 21.1471 21.2562 21.3299L21.1905 21.3956C21.0996 21.4865 20.9796 21.5324 20.8596 21.5324Z" fill="black"/>
<path d="M8.672 7.472C8.55107 7.472 8.43013 7.42513 8.33825 7.33232C8.15638 7.14763 8.15825 6.85138 8.34294 6.6695L8.4095 6.60388C8.59325 6.422 8.89044 6.42388 9.07232 6.60857C9.25419 6.79325 9.25232 7.0895 9.06763 7.27138L9.00107 7.337C8.91013 7.427 8.79107 7.472 8.672 7.472Z" fill="black"/>
</svg>
