<svg width="30" height="30" viewBox="0 0 30 30" fill="none" xmlns="http://www.w3.org/2000/svg">
<g clip-path="url(#clip0_8836_12292)">
<path d="M5.43867 17.0637C5.25117 17.0637 5.01679 16.923 4.96992 16.6887L4.36054 14.2512C4.31367 14.0168 4.45429 13.7355 4.68867 13.6887C4.92304 13.6418 5.20429 13.7824 5.25117 14.0168L5.86054 16.4543C5.90742 16.6887 5.76679 16.9699 5.53242 17.0168C5.53242 17.0637 5.48554 17.0637 5.43867 17.0637Z" fill="white"/>
<path d="M4.17353 17.0634H2.06415C1.36103 17.0634 0.751654 16.7353 0.329779 16.1728C-0.0452211 15.6572 -0.0920961 15.0478 0.0954039 14.4384C0.517279 13.3603 1.73603 12.8915 3.79853 13.0322C4.4079 13.079 4.9704 13.4072 5.20478 13.9228C5.48603 14.3915 5.3454 14.7665 5.25165 14.954C4.9704 15.4697 4.26728 15.704 3.00165 15.7509C2.76728 15.7509 2.5329 15.5634 2.5329 15.2822C2.5329 15.0009 2.7204 14.8134 3.00165 14.8134C4.2204 14.7665 4.4079 14.5322 4.45478 14.4853C4.45478 14.4853 4.45478 14.4384 4.4079 14.3447C4.26728 14.1103 4.0329 13.9697 3.75165 13.9697C2.67353 13.8759 1.31415 13.9697 1.0329 14.7665C0.892279 15.1415 1.0329 15.4697 1.17353 15.6103C1.4079 15.8915 1.73603 16.079 2.11103 16.079H4.2204C4.50165 16.079 4.68915 16.3134 4.68915 16.5478C4.68915 16.7822 4.45478 17.0634 4.17353 17.0634Z" fill="white"/>
<path d="M24.5637 17.0637C24.5168 17.0637 24.47 17.0637 24.4231 17.0637C24.1887 17.0168 24.0012 16.7356 24.095 16.5012L24.7043 14.0637C24.7512 13.8293 25.0325 13.6418 25.2668 13.7356C25.5012 13.7825 25.6887 14.0637 25.595 14.2981L24.9856 16.7356C24.9856 16.9231 24.7512 17.0637 24.5637 17.0637Z" fill="white"/>
<path d="M27.9396 17.0634H25.8302C25.549 17.0634 25.3615 16.829 25.3615 16.5947C25.3615 16.3603 25.5958 16.1259 25.8302 16.1259H27.9396C28.3146 16.1259 28.6896 15.9384 28.8771 15.6572C28.9708 15.5165 29.1583 15.1884 29.0177 14.8134C28.7365 14.0165 27.3771 13.9228 26.299 14.0165C26.0177 14.0165 25.7365 14.204 25.6427 14.3915C25.5958 14.4853 25.5958 14.5322 25.5958 14.5322C25.5958 14.5322 25.7833 14.8134 27.0958 14.8603C27.3771 14.8603 27.5646 15.0947 27.5646 15.329C27.5646 15.6103 27.3302 15.7978 27.0958 15.7978C25.8302 15.7509 25.1271 15.5165 24.8458 15.0009C24.7521 14.8134 24.6115 14.4384 24.8927 13.9697C25.174 13.454 25.6896 13.1259 26.299 13.079C28.3615 12.9384 29.5802 13.4072 30.0021 14.4853C30.2365 15.0478 30.1427 15.704 29.7677 16.2197C29.2521 16.7353 28.6427 17.0634 27.9396 17.0634Z" fill="white"/>
<path d="M2.34452 20.6224C2.15702 20.6224 1.96952 20.5286 1.92264 20.3411L0.282019 16.0755C0.188269 15.8411 0.282019 15.6068 0.516394 15.4661C0.750769 15.3724 0.985144 15.4193 1.12577 15.6068C1.31327 15.9349 1.68827 16.1224 2.06327 16.1224H27.9383C28.3133 16.1224 28.6883 15.9349 28.8758 15.6068C29.0164 15.4193 29.2508 15.3255 29.4851 15.4661C29.7195 15.5599 29.8133 15.8411 29.7195 16.0755L28.0789 20.3411C27.9851 20.5755 27.7039 20.7161 27.4695 20.6224C27.2351 20.5286 27.0945 20.2474 27.1883 20.013L28.3133 17.0599C28.1726 17.1068 28.032 17.1068 27.8914 17.1068H2.06327C1.92264 17.1068 1.78202 17.1068 1.64139 17.0599L2.76639 20.013C2.86014 20.2474 2.71952 20.5286 2.48514 20.6224C2.48514 20.6224 2.39139 20.6224 2.34452 20.6224Z" fill="white"/>
<path d="M22.877 29.5762H7.12702C6.14265 29.5762 5.25202 28.9669 4.87702 28.0294L4.83015 27.8419C4.7364 27.6075 4.87702 27.3262 5.1114 27.2325C5.34577 27.1387 5.62702 27.2794 5.72077 27.5137L5.76765 27.7012C5.95515 28.2637 6.51765 28.6387 7.12702 28.6387H22.877C23.4864 28.6387 24.002 28.2637 24.2364 27.7012L24.2833 27.5606C24.377 27.3262 24.6583 27.1856 24.8926 27.2794C25.127 27.3731 25.2676 27.6544 25.1739 27.8887L25.127 28.0762C24.7989 28.9669 23.8614 29.5762 22.877 29.5762Z" fill="white"/>
<path d="M5.25117 26.7656C3.04804 26.7656 1.59492 25.2188 1.31367 22.5938C1.26679 22.2188 1.40742 21.8438 1.64179 21.5625C1.96992 21.1875 2.48554 21 3.00117 21.1406C3.23554 21.1875 3.51679 21.1875 3.79804 21.1406C4.07929 21.0937 4.36054 21.0469 4.64179 20.9531C5.11054 20.8594 5.57929 20.7656 6.04804 20.7656C6.98554 20.7656 7.59492 21.2812 7.82929 22.3125C8.15742 23.8125 7.96992 25.125 7.36054 25.9219C6.89179 26.4375 6.18867 26.7656 5.25117 26.7656ZM2.76679 22.0313C2.62617 22.0313 2.48554 22.0781 2.39179 22.2188C2.34492 22.2188 2.25117 22.3594 2.29804 22.5C2.43867 23.7656 2.95429 25.8281 5.29804 25.8281C5.90742 25.8281 6.37617 25.6406 6.65742 25.2656C7.12617 24.7031 7.21992 23.625 6.98554 22.4531C6.84492 21.7031 6.51679 21.6563 6.14179 21.6563C5.81367 21.6563 5.39179 21.75 4.96992 21.8437C4.68867 21.8906 4.36054 21.9844 4.07929 22.0313C3.65742 22.0781 3.28242 22.0781 2.90742 22.0313C2.86054 22.0313 2.81367 22.0313 2.76679 22.0313Z" fill="white"/>
<path d="M24.7497 26.7656C23.8591 26.7656 23.1091 26.4375 22.6403 25.8281C21.9841 25.0312 21.7966 23.7188 22.1716 22.2188C22.406 21.1875 22.9685 20.6719 23.9528 20.6719C24.3747 20.6719 24.8435 20.7656 25.3591 20.8594C25.6403 20.9063 25.9216 21 26.2028 21.0469C26.531 21.0938 26.8122 21.0938 26.9997 21.0469C27.5622 20.9531 28.031 21.0938 28.406 21.4688C28.6872 21.75 28.781 22.125 28.7341 22.5C28.406 25.2188 26.9528 26.7656 24.7497 26.7656ZM23.906 21.6563C23.531 21.6563 23.2028 21.7031 23.0622 22.4531C22.781 23.625 22.9216 24.7031 23.3903 25.2656C23.6716 25.6406 24.1403 25.8281 24.7497 25.8281C27.0935 25.8281 27.6091 23.7188 27.7497 22.5C27.7497 22.3594 27.7028 22.2188 27.656 22.1719C27.5153 22.0313 27.3278 21.9844 27.1403 22.0313C26.8122 22.125 26.3903 22.125 25.9685 22.0313C25.6872 21.9844 25.3591 21.9375 25.0778 21.8438C24.6091 21.75 24.2341 21.6563 23.906 21.6563Z" fill="white"/>
<path d="M15 15.0469C12.3281 15.0469 10.125 12.8438 10.125 10.1719C10.125 9.84375 10.1719 9.51563 10.2187 9.1875C10.2656 8.95313 10.4531 8.8125 10.6875 8.8125H19.3125C19.5469 8.8125 19.7344 8.95313 19.7813 9.1875C19.8281 9.51563 19.875 9.89063 19.875 10.1719C19.875 12.8906 17.6719 15.0469 15 15.0469ZM11.1094 9.75C11.1094 9.89062 11.0625 10.0313 11.0625 10.1719C11.0625 12.3281 12.8438 14.1094 15 14.1094C17.1562 14.1094 18.9375 12.3281 18.9375 10.1719C18.9375 10.0313 18.9375 9.89062 18.8906 9.75H11.1094Z" fill="white"/>
<path d="M20.7185 9.75H9.32786C8.99973 9.75 8.71848 9.60938 8.53098 9.32812C8.34348 9.09375 8.29661 8.76563 8.43723 8.48438C8.57786 8.15625 8.71848 7.875 8.99973 7.64062C9.42161 7.21875 9.98411 6.98438 10.6404 6.98438H19.4997C20.4841 6.98438 21.3279 7.59375 21.656 8.53125C21.7497 8.8125 21.7029 9.14063 21.5622 9.375C21.281 9.60938 20.9997 9.75 20.7185 9.75ZM10.5466 7.92188C10.1716 7.92188 9.84348 8.0625 9.60911 8.29688C9.46848 8.4375 9.37473 8.625 9.28098 8.8125L20.6716 8.76563C20.4841 8.25 19.9685 7.875 19.406 7.875H10.5466V7.92188Z" fill="white"/>
<path d="M19.9219 7.9241H10.0781C9.79687 7.9241 9.60938 7.7366 9.60938 7.45535V7.22097C9.60938 5.58035 10.3594 4.03347 11.6719 3.00222C11.8594 2.8616 12.1875 2.8616 12.3281 3.09597C12.4687 3.28347 12.4219 3.56472 12.2344 3.75222C11.2031 4.5491 10.5938 5.72097 10.5469 7.03347H19.4531C19.4062 5.90847 18.9375 4.87722 18.1406 4.12722C18.0469 4.03347 17.9063 3.89285 17.7656 3.7991C17.5781 3.65847 17.5313 3.33035 17.6719 3.14285C17.8125 2.95535 18.1406 2.90847 18.3281 3.0491C18.5156 3.18972 18.6562 3.33035 18.7969 3.47097C19.8281 4.50222 20.3906 5.8616 20.3906 7.26785V7.50222C20.3906 7.7366 20.2031 7.9241 19.9219 7.9241Z" fill="white"/>
<path d="M16.1719 5.01562C15.8906 5.01562 15.7031 4.82812 15.7031 4.54688V2.0625C15.7031 1.6875 15.375 1.35938 15 1.35938C14.625 1.35938 14.2969 1.6875 14.2969 2.0625V4.54688C14.2969 4.82812 14.1094 5.01562 13.8281 5.01562C13.5469 5.01562 13.3594 4.82812 13.3594 4.54688V2.0625C13.3594 1.17188 14.1094 0.421875 15 0.421875C15.8906 0.421875 16.6406 1.17188 16.6406 2.0625V4.54688C16.6406 4.78125 16.4531 5.01562 16.1719 5.01562Z" fill="white"/>
</g>
<defs>
<clipPath id="clip0_8836_12292">
<rect width="30" height="30" fill="white"/>
</clipPath>
</defs>
</svg>
