<svg width="80" height="76" viewBox="0 0 80 76" fill="none" xmlns="http://www.w3.org/2000/svg">
<path d="M42.168 75.5C62.8786 75.5 79.668 58.7107 79.668 38C79.668 17.2893 62.8786 0.5 42.168 0.5C21.4573 0.5 4.66797 17.2893 4.66797 38C4.66797 58.7107 21.4573 75.5 42.168 75.5Z" fill="#6BBEF6"/>
<path d="M52.6891 74.0031C49.3511 74.9779 45.8198 75.5 42.168 75.5C21.4577 75.5 4.66797 58.7103 4.66797 38C4.66797 17.2883 21.4577 0.5 42.168 0.5C45.8198 0.5 49.3511 1.02207 52.6891 1.99692C37.1005 6.5438 25.7102 20.9416 25.7102 38C25.7102 55.0584 37.1005 69.4562 52.6891 74.0031Z" fill="#528ECB"/>
<path d="M31.2137 33.8289C29.4436 44.4481 20.003 48.9707 23.7394 57.4275C27.4773 65.8827 27.5255 68.3923 23.0768 70.2846H23.0753C19.2801 68.0346 15.9164 65.1356 13.1367 61.7403C15.1196 54.2584 6.11069 48.3128 4.91538 42.3355C4.91538 42.3324 4.91392 42.3295 4.91392 42.3264C4.75249 40.9079 4.66797 39.4637 4.66797 38.0015C4.66797 29.0347 7.81431 20.8043 13.0643 14.3516C22.3631 16.9169 32.9824 23.2098 31.2137 33.8289Z" fill="#86F1A7"/>
<path d="M23.0753 70.2846H23.0768C27.5255 68.3923 27.4772 65.8827 23.7394 57.4275C21.6055 52.5979 23.7695 49.0511 26.3479 44.9195C25.9297 42.6772 25.7102 40.365 25.7102 38.0015C25.7102 32.8776 26.7391 27.9944 28.5994 23.5455C25.0832 18.9576 18.8213 15.9399 13.0642 14.3516C7.81431 20.8042 4.66797 29.0346 4.66797 38.0013C4.66797 39.4635 4.75249 40.9077 4.91392 42.3263C4.91392 42.3293 4.91538 42.3323 4.91538 42.3354C6.11055 48.3126 15.1196 54.2584 13.1367 61.7403C15.9165 65.1356 19.2802 68.0346 23.0753 70.2846Z" fill="#66B49D"/>
<path d="M27.4769 72.5114L27.4766 72.512C31.9887 74.4355 36.9542 75.5009 42.1689 75.5009C47.3836 75.5009 52.349 74.4355 56.8612 72.5122V72.5114C52.3492 70.5874 47.3828 69.5234 42.1689 69.5234C36.9551 69.5236 31.9889 70.5874 27.4769 72.5114Z" fill="#E4F6FF"/>
<path d="M52.687 74.0028C49.1891 72.9822 45.9036 71.4642 42.9097 69.5328C42.6632 69.528 42.4167 69.5234 42.1689 69.5234C36.9551 69.5234 31.9889 70.5874 27.4769 72.5114L27.4766 72.512C31.9887 74.4353 36.9542 75.5009 42.1689 75.5009C45.8209 75.5007 49.3498 74.9765 52.687 74.0028Z" fill="#B9E4EF"/>
<path d="M79.6673 37.9984C79.6673 47.8662 75.8539 56.8435 69.6245 63.5406C65.9816 60.6749 62.9138 54.441 62.9138 48.7714C62.9138 41.1024 72.3544 42.2825 72.3544 36.776C72.3544 31.2695 59.375 35.202 59.375 24.9767C59.375 18.3625 65.7538 14.8282 70.2598 13.1562C76.1135 19.7721 79.6673 28.4702 79.6673 37.9984Z" fill="#86F1A7"/>
<path d="M35.0834 6.09613C37.7815 6.77069 38.2299 17.6987 33.9035 17.6987C29.5771 17.6987 25.1523 15.9289 25.1523 13.274C25.1523 10.6191 30.3637 4.91619 35.0834 6.09613Z" fill="#E4F6FF"/>
<path d="M35.0834 6.09613C30.3637 4.91619 25.1523 10.6191 25.1523 13.274C25.1523 15.4896 28.2342 17.0877 31.7686 17.5563C33.307 15.1949 35.1041 13.0178 37.1197 11.0647C37.007 8.63001 36.2588 6.38997 35.0834 6.09613Z" fill="#B9E4EF"/>
<path d="M77.779 14.2565C77.779 18.5393 75.3841 22.2621 71.8604 24.1589C70.2759 25.013 68.4636 25.4975 66.5379 25.4975C64.6124 25.4975 62.8 25.013 61.2154 24.1589C57.6917 22.2621 55.2969 18.5392 55.2969 14.2565C55.2969 8.04824 60.3296 3.01562 66.5378 3.01562C72.7459 3.01562 77.779 8.04824 77.779 14.2565Z" fill="#F4DD45"/>
<path d="M63.6283 24.1589C64.8778 24.832 66.2677 25.2755 67.745 25.4326C67.3481 25.4764 66.9452 25.4975 66.5378 25.4975C64.6123 25.4975 62.8 25.013 61.2154 24.1589C57.6917 22.2621 55.2969 18.5392 55.2969 14.2565C55.2969 8.04824 60.3296 3.01562 66.5378 3.01562C66.9453 3.01562 67.3481 3.03672 67.745 3.07905C62.1042 3.6811 57.7098 8.45576 57.7098 14.2567C57.7098 18.5392 60.1046 22.2621 63.6283 24.1589Z" fill="#EAB14D"/>
<path d="M71.8599 24.1623C70.2753 25.0164 68.463 25.5008 66.5374 25.5008C64.6118 25.5008 62.7994 25.0164 61.2148 24.1623C61.6389 21.606 63.8602 19.6562 66.5374 19.6562C69.2145 19.6562 71.4358 21.606 71.8599 24.1623Z" fill="#DA4A54"/>
<path d="M66.5374 19.6529C69.518 19.6529 71.9342 17.2367 71.9342 14.2562C71.9342 11.2756 69.518 8.85938 66.5374 8.85938C63.5568 8.85938 61.1406 11.2756 61.1406 14.2562C61.1406 17.2367 63.5568 19.6529 66.5374 19.6529Z" fill="#F1B986"/>
<path d="M66.5378 8.85938C65.1121 8.85938 63.8165 9.41323 62.8516 10.3162C62.8517 10.3162 66.0906 14.256 71.9346 14.256C71.9346 11.2756 69.5185 8.85938 66.5378 8.85938Z" fill="#BE694F"/>
<path d="M28.1501 64.7409C28.1501 69.0237 25.7552 72.7464 22.2315 74.6433C20.647 75.4974 18.8347 75.9818 16.909 75.9818C14.9833 75.9818 13.171 75.4974 11.5865 74.6433C8.06284 72.7464 5.66797 69.0235 5.66797 64.7409C5.66797 58.5326 10.7007 53.5 16.9089 53.5C23.117 53.5 28.1501 58.5326 28.1501 64.7409Z" fill="#DA4A54"/>
<path d="M13.9994 74.6433C15.2489 75.3164 16.6388 75.7599 18.1161 75.9169C17.7192 75.9607 17.3163 75.9818 16.9089 75.9818C14.9834 75.9818 13.171 75.4974 11.5865 74.6433C8.06284 72.7464 5.66797 69.0235 5.66797 64.7409C5.66797 58.5326 10.7007 53.5 16.9089 53.5C17.3164 53.5 17.7192 53.5211 18.1161 53.5634C12.4752 54.1655 8.08086 58.9401 8.08086 64.7411C8.08086 69.0235 10.4757 72.7464 13.9994 74.6433Z" fill="#C32430"/>
<path d="M22.231 74.6466C20.6464 75.5008 18.8341 75.9852 16.9084 75.9852C14.9828 75.9852 13.1705 75.5008 11.5859 74.6466C12.01 72.0903 14.2313 70.1406 16.9084 70.1406C19.5856 70.1406 21.8069 72.0903 22.231 74.6466Z" fill="white"/>
<path d="M16.9085 70.1373C19.8891 70.1373 22.3053 67.7211 22.3053 64.7405C22.3053 61.76 19.8891 59.3438 16.9085 59.3438C13.9279 59.3438 11.5117 61.76 11.5117 64.7405C11.5117 67.7211 13.9279 70.1373 16.9085 70.1373Z" fill="#F1D0A5"/>
<path d="M16.9089 59.3438C15.4832 59.3438 14.1875 59.8976 13.2227 60.8005C13.2227 60.8005 16.4617 64.7404 22.3057 64.7404C22.3057 61.76 19.8896 59.3438 16.9089 59.3438Z" fill="#404A4A"/>
<path d="M23.1498 14.7409C23.1498 19.0237 20.7549 22.7464 17.2312 24.6433C15.6467 25.4974 13.8344 25.9818 11.9087 25.9818C9.98306 25.9818 8.17075 25.4974 6.58623 24.6433C3.06284 22.7464 0.667969 19.0237 0.667969 14.7409C0.667969 8.53262 5.70073 3.5 11.9089 3.5C18.117 3.5 23.1498 8.53276 23.1498 14.7409Z" fill="#BE694F"/>
<path d="M8.99941 24.6434C10.2489 25.3165 11.6388 25.7601 13.1161 25.9171C12.7192 25.9609 12.3163 25.982 11.9089 25.982C9.98335 25.982 8.17104 25.4976 6.58652 24.6434C3.06284 22.7464 0.667969 19.0237 0.667969 14.7409C0.667969 8.53262 5.70073 3.5 11.9089 3.5C12.3164 3.5 12.7192 3.52109 13.1161 3.56343C7.47524 4.16548 3.08086 8.94014 3.08086 14.7411C3.08101 19.0237 5.47588 22.7464 8.99941 24.6434Z" fill="#934D36"/>
<path d="M17.231 24.6466C15.6464 25.5008 13.8341 25.9852 11.9084 25.9852C9.98276 25.9852 8.17046 25.5008 6.58594 24.6466C7.01001 22.0903 9.2313 20.1406 11.9084 20.1406C14.5856 20.1406 16.8069 22.0902 17.231 24.6466Z" fill="#6BBEF6"/>
<path d="M11.9085 20.1373C14.8891 20.1373 17.3053 17.7211 17.3053 14.7405C17.3053 11.76 14.8891 9.34375 11.9085 9.34375C8.92794 9.34375 6.51172 11.76 6.51172 14.7405C6.51172 17.7211 8.92794 20.1373 11.9085 20.1373Z" fill="#F1D0A5"/>
<path d="M11.9089 9.34375C10.4832 9.34375 9.18755 9.89761 8.22266 10.8005C8.22266 10.8005 11.4617 14.7404 17.3057 14.7404C17.3057 11.7599 14.8895 9.34375 11.9089 9.34375Z" fill="#EAB14D"/>
<path d="M49.2689 59.7177C49.1814 59.9619 49.481 60.1078 49.3544 60.3828C49.0063 60.2242 48.8939 59.8822 48.682 59.606C47.8442 58.4522 47.1683 57.198 46.5571 55.9312C46.094 54.9539 45.7528 53.9072 45.5377 52.8126C45.3183 51.6966 44.9768 50.536 44.3304 49.5494C44.1055 49.2072 44.2358 49.0677 44.5665 49.0249C44.9417 48.9743 44.701 49.3626 44.8572 49.4681C45.4593 48.9634 46.1071 49.2678 46.3006 50.1396C46.4425 50.8614 46.541 51.5925 47.1628 52.1068C47.3533 52.2741 47.2702 52.5406 47.204 52.7806C46.985 53.3917 47.1364 54.0447 47.0785 54.6695C47.0603 54.9233 47.26 55.0202 47.4868 55.0211C47.9653 55.0409 48.4395 55.0386 48.9358 55.0318C49.2487 55.0157 49.3805 54.7628 49.4636 54.4963C49.5381 54.1861 49.2294 54.2236 49.0767 54.1405C48.8726 54.0213 48.6466 54.0203 48.4157 54.1111C48.0586 54.2498 47.8894 54.0784 47.8853 53.7151C47.8652 52.9231 47.6192 52.2441 47.2113 51.5516C46.9119 51.0647 46.4607 50.4945 46.7067 49.7865C46.7635 49.616 46.7419 49.3932 46.6247 49.2569C46.1514 48.6911 45.8099 47.9855 45.1099 47.645C45.0578 47.6099 45.0015 47.5533 44.9359 47.5662C44.7533 47.5566 44.5737 47.7958 44.4096 47.5334C44.2181 47.2523 44.0843 46.9145 43.9107 46.6077C43.5942 46.0334 43.3696 45.3502 42.6697 45.0105C42.6343 45.2899 42.7821 45.4656 42.925 45.62C43.1642 45.914 43.2543 46.2595 43.3274 46.6315C43.3446 46.7189 43.3706 46.8509 43.2665 46.8936C43.1618 46.9374 43.0576 46.867 43.0181 46.7831C42.7059 46.2311 42.2719 45.7484 42.1036 45.1218C42.0735 44.9684 42.0612 44.7892 41.9876 44.6443C41.8447 44.3768 41.923 44.2029 42.141 44.0461C42.2194 43.9853 42.2933 43.9022 42.3725 43.8413C42.8647 43.3581 42.8517 43.2922 42.3437 42.8925C42.2659 42.8393 42.2052 42.7604 42.0396 42.6113C42.1441 42.9087 42.2219 43.075 42.282 43.2679C42.3601 43.5481 42.2462 43.7753 42.0239 43.9098C41.7411 44.0793 41.5367 43.8462 41.4068 43.6447C41.0033 43.0875 40.6995 42.4652 40.4835 41.8258C40.324 41.3568 40.0811 40.9273 39.7249 40.611C39.2124 40.1883 38.9046 39.6585 38.7363 39.0319C38.6754 38.8391 38.5718 38.6547 38.4327 38.5236C37.173 37.5204 36.5581 36.0049 35.5556 34.8149C35.5257 34.7754 35.4692 34.718 35.4863 34.6923C35.7403 34.1421 35.2003 34.0435 34.984 33.745C34.5498 33.1484 34.3822 32.4086 34.0919 31.7383C33.1526 29.6038 31.8471 27.6784 30.5236 25.7788C30.3935 25.5764 30.2287 25.4272 30.3118 25.1607C30.356 25.0389 30.3472 24.8813 30.2081 24.8633C29.7689 24.8134 29.63 24.4534 29.435 24.1508C29.1187 23.6904 28.7753 23.3261 28.1527 23.3799C27.9524 23.397 27.8048 23.3352 27.7004 23.151C27.1673 22.1643 26.5561 21.2393 25.9668 20.3091C25.676 19.8659 25.3504 19.475 24.9286 19.1715C24.2685 18.6878 23.6255 18.1777 22.9653 17.6932C22.752 17.5312 22.5529 17.3202 22.2128 17.4325C22.0431 17.4881 21.153 16.6401 21.1399 16.4611C21.1447 16.2554 21.3152 16.1996 21.4933 16.1869C21.8063 16.1707 22.1244 16.1767 22.4895 16.1958C22.3987 15.9635 22.186 15.8005 22.361 15.4252C21.6152 16.1175 21.0455 16.0933 20.5464 15.5094C20.3114 15.2369 20.3205 15.0535 20.6905 14.9808C21.0826 14.9037 20.992 14.7853 20.7877 14.5521C20.3315 14.0738 20.4509 13.5278 21.0259 13.2323C21.2909 13.0893 21.5097 12.8193 21.7404 12.6146C21.7583 12.5888 21.7667 12.5186 21.7581 12.4749C21.7238 12.4131 21.6282 12.3865 21.5934 12.4388C21.3405 12.6478 21.0488 12.6597 20.7572 12.6717C20.6659 12.6665 20.5518 12.7797 20.4778 12.8628C20.2337 13.2295 19.9801 13.5518 19.4794 13.5362C19.2279 13.518 19.1661 13.7803 19.1826 13.981C19.195 14.2741 19.2689 14.5328 19.3248 14.8174C19.3592 14.9923 19.2938 15.1191 19.1762 15.2099C18.9931 15.3144 18.9152 15.1481 18.8059 15.0557C18.507 14.7966 18.5378 14.381 18.3215 14.0825C18.0085 13.6437 17.7399 13.1962 17.445 12.7316C17.2149 12.3673 17.0249 11.9729 17.196 11.3481C16.6768 11.9273 16.5775 11.6521 16.4036 11.2314C16.0791 10.4993 15.4582 9.98481 14.9761 9.3745C13.5745 7.64957 12.3168 5.85093 11.1545 3.96502C11.0897 3.86469 11.0459 3.75934 10.9639 3.68464C10.582 3.23711 10.6167 3.07096 11.2218 2.92887L11.7666 2.8218C11.8536 2.80471 12.0275 2.77052 12.0582 2.80988C12.3525 3.27548 12.8228 3.47861 13.2615 3.75562C13.5442 3.92795 13.6484 3.99829 13.9098 3.83294C14.4721 3.47227 14.9329 3.63186 15.1012 4.25845C15.1783 4.538 15.2957 4.78822 15.6485 4.62806C15.962 4.49789 16.1583 4.57325 16.3617 4.80571C16.5923 5.05594 16.8355 5.14436 17.1105 4.81788C17.3675 4.51719 17.7242 4.60643 18.0374 4.70422C18.3027 4.78829 18.2418 5.05043 18.1584 5.20302C17.9399 5.58695 18.092 5.78408 18.3476 6.05254C18.6038 6.32002 18.9477 6.45717 19.2211 6.69901C19.4124 6.86616 19.6304 6.70937 19.8179 6.62711C19.9832 6.5492 20.1572 6.51502 20.2785 6.67279C20.3956 6.80912 20.291 6.96591 20.2256 7.09271C19.9154 7.69941 19.9455 7.85283 20.4366 8.27891C20.7354 8.538 20.8965 8.89357 21.0344 9.25283C21.1165 9.4406 21.2253 9.64711 21.4469 9.62583C21.9916 9.51875 22.3129 9.88738 22.682 10.1567C23.1038 10.4601 23.4855 10.7938 23.8895 11.1239C24.2114 11.3784 24.5461 11.5859 24.9768 11.5921C25.0681 11.5973 25.1593 11.6016 25.2114 11.6368C25.6717 12.0235 26.1981 12.1702 26.8201 12.2304C27.1902 12.2708 27.5205 12.456 27.9254 12.331C28.1999 12.2316 28.4125 12.3946 28.5383 12.6877C29.006 13.8012 29.823 14.2771 31.0114 14.1112C31.2332 14.0907 31.4379 14.0959 31.6639 14.0969C32.1432 14.1166 32.5866 14.0749 32.945 13.7089C33.0012 13.6524 33.0838 13.613 33.1409 13.5564C33.9382 13.0133 34.2079 13.1197 34.3885 14.0385L34.4574 14.3891C34.5655 14.8219 34.7961 14.9591 35.188 14.7681C35.7239 14.5034 36.1676 14.5756 36.5539 15.0453C36.7317 15.2606 36.923 15.4277 37.241 15.3198C37.5801 15.2069 37.837 15.3611 38.0848 15.5857C38.5537 16.0161 39.0489 16.3506 39.7288 15.8991C40.008 15.7072 40.2157 15.9619 40.3544 16.2079C40.5367 16.5585 40.5707 16.9613 40.9182 17.234C41.1052 17.3788 40.9393 17.5708 40.7696 17.6264C40.3904 17.7695 40.2289 18.0968 40.0666 18.4243C39.8567 18.8519 39.4869 19.0385 38.9946 18.9528C38.8079 18.9219 38.6423 18.8859 38.4598 18.8763C38.2338 18.8753 38.0242 18.962 38.0979 19.2199C38.1881 19.5663 38.1922 19.9296 38.3002 20.2493C38.4518 20.6736 38.6988 21.0114 39.2821 20.9876C39.9303 20.9518 40.5743 21.0069 41.2141 21.1535C42.232 21.3861 43.2056 21.7396 44.0222 22.4435C44.2964 22.6852 44.156 22.8944 43.9773 23.1343C43.6326 23.5653 43.131 23.8918 42.9776 24.4899C42.9421 24.6563 42.7505 24.8301 42.9418 24.9973C43.1332 25.1644 43.3112 25.0386 43.4943 24.9341C43.6597 24.8562 43.8172 24.7344 44.0084 24.7876C44.778 25.0227 45.41 24.5575 46.1287 24.4163C46.4117 24.3606 46.6732 24.1953 46.8698 23.9296C46.9395 23.8251 47.0528 23.712 47.2004 23.7738C47.3489 23.8355 47.3833 24.0103 47.3348 24.1107C47.155 24.6917 47.3979 25.0081 47.8496 25.3511C48.1715 25.6057 48.3489 26.0488 48.5788 26.4123C48.7089 26.6146 49.1659 26.6379 48.9688 27.0176C48.7851 27.3493 48.4677 27.23 48.2066 27.1674C47.8765 27.0961 47.7582 27.3009 47.6709 27.546C47.4472 28.3627 47.9628 29.1481 48.8031 29.2785C49.1767 29.3413 49.5511 29.4039 49.9427 29.4408C50.4562 29.5215 50.8821 29.7334 51.1202 30.2554C51.2374 30.5048 51.4585 30.5976 51.7068 30.7081C51.9765 30.8145 52.1757 31.0255 52.1189 31.3091C52.0395 31.7111 52.1126 32.0831 52.1857 32.4551C52.2676 32.8716 52.1538 33.2118 51.7575 33.3806C51.3604 33.5494 51.3908 33.8167 51.5157 34.11C51.7112 34.6405 51.7921 35.1694 51.8998 35.7171C51.9256 35.8483 51.9779 35.9973 51.955 36.1149C51.7791 36.9454 51.8776 37.6765 52.5557 38.2475C52.6334 38.3007 52.6814 38.4275 52.6764 38.5193C52.6973 39.198 53.0834 39.5539 53.6748 39.8009C53.8966 39.8935 54.0923 40.0829 54.2785 40.2279C54.7302 40.5709 55.27 40.5556 55.6975 40.1992C55.8329 40.0817 56.0118 39.9558 56.0729 39.8067C56.5403 38.8512 57.4426 38.3783 58.2313 37.7915C58.6631 37.4565 58.9156 37.4754 59.2668 37.8835C59.6188 38.2915 60.0271 38.6431 60.1603 39.208C60.1818 39.3177 60.2733 39.436 60.3732 39.4849C60.9033 39.7671 60.898 40.1999 60.7446 40.685C60.736 40.7543 60.7225 40.8024 60.692 40.8769C60.355 41.8067 60.2134 42.699 60.9866 43.5245C61.3856 43.9464 61.4104 44.5318 61.2007 45.0734C60.9732 45.6415 61.0586 46.1927 61.34 46.7054C61.5531 47.0962 61.6127 47.5163 61.5418 47.962C61.4577 48.6827 61.3951 49.4001 61.328 50.0952C61.2793 50.5366 61.4315 50.7346 61.8788 50.9422C62.4745 51.2115 62.8537 51.0684 63.3026 50.7078C63.7479 50.3247 64.1002 50.3916 64.4251 50.8958C64.5902 51.1589 64.8677 51.3091 65.0898 51.5156C65.511 51.9331 65.549 52.2435 65.2393 52.7362C65.1518 52.8673 65.0471 53.0241 65.0338 53.1861C64.9657 54.2224 64.5461 55.1915 64.4303 56.215C64.2973 57.264 64.2386 58.3439 64.0357 59.3835C63.9215 59.9517 63.729 60.4676 63.2887 60.872C63.04 61.1025 63.0175 61.3348 63.2081 61.6152C63.3689 61.8569 63.534 62.12 63.6769 62.3875C63.8625 62.7596 64.1411 63.0236 64.5319 63.1738C64.9448 63.3196 65.0664 63.5913 65.0613 64.025C65.047 64.6412 64.8628 65.2 64.5833 65.733C64.194 66.5137 64.4745 67.4815 65.2217 67.9489C65.552 68.1341 65.8823 68.3185 66.217 68.526C66.5039 68.7198 66.6859 68.9564 66.5765 69.3189C66.4536 69.7295 66.3358 70.1621 65.8567 70.2563C65.4867 70.329 65.5125 70.4602 65.6681 70.6797C66.0066 71.1358 65.8445 71.5772 65.6304 71.9834C65.434 72.3629 65.3025 72.7298 65.3671 73.1711C65.431 73.6135 64.7076 73.9604 64.1903 73.7434C63.0075 73.2485 61.8604 72.7013 60.9487 71.7436C60.3533 71.1333 59.7329 70.5047 58.9502 70.0906C58.4202 69.8084 58.1206 69.2076 57.6389 68.8251C56.7225 68.0731 55.7662 67.3521 54.9808 66.4604C54.5682 65.9736 53.9162 65.7607 53.3818 65.4563C53.2034 65.3551 52.9993 65.2359 52.8379 65.1083C52.7082 65.0207 52.6124 64.8801 52.6957 64.7276C52.7918 64.527 52.9566 64.6763 53.0829 64.7423C53.1871 64.8126 53.287 64.8615 53.4394 64.7176C53.1832 64.5632 52.9876 64.3746 53.1065 64.0557C53.3161 63.5141 53.7861 63.4903 54.3821 63.5316C53.9911 63.2675 54.1315 63.0583 54.3444 62.8802C54.271 62.8493 54.2189 62.8141 54.2232 62.8355C53.7864 63.2624 53.2126 63.3297 52.6637 63.5285C52.4764 63.6115 52.393 63.7641 52.3626 63.9517C52.3355 64.0479 52.3357 64.1618 52.2053 64.1874C52.0961 64.2089 52.0311 64.1077 51.9874 64.0024C51.7542 63.2754 51.216 62.7224 50.8039 62.1215C50.6431 61.8798 50.5309 61.6517 50.6489 61.3329C50.7237 61.1366 50.8026 60.8487 50.3675 60.8202C50.185 60.8107 50.1069 60.5305 50.029 60.3642C49.7073 60.2226 49.5771 59.9073 49.2689 59.7177Z" fill="#E4F6FF"/>
</svg>
