<svg width="24" height="25" viewBox="0 0 24 25" fill="none" xmlns="http://www.w3.org/2000/svg">
<g clip-path="url(#clip0_3223_24836)">
<path d="M12.0057 6.00781C8.60266 6.00781 5.84766 8.76581 5.84766 12.1658C5.84766 15.5688 8.60566 18.3238 12.0057 18.3238C15.4087 18.3238 18.1637 15.5658 18.1637 12.1658C18.1637 8.76281 15.4057 6.00781 12.0057 6.00781ZM12.0057 16.1628C9.79666 16.1628 8.00866 14.3738 8.00866 12.1658C8.00866 9.95781 9.79766 8.16881 12.0057 8.16881C14.2137 8.16881 16.0027 9.95781 16.0027 12.1658C16.0037 14.3738 14.2147 16.1628 12.0057 16.1628Z" fill="#FBFBFB"/>
<path d="M16.9482 0.247262C14.7402 0.144262 9.27123 0.149262 7.06123 0.247262C5.11923 0.338262 3.40623 0.807261 2.02523 2.18826C-0.282773 4.49626 0.0122273 7.60626 0.0122273 12.1673C0.0122273 16.8353 -0.247773 19.8733 2.02523 22.1463C4.34223 24.4623 7.49723 24.1593 12.0042 24.1593C16.6282 24.1593 18.2242 24.1623 19.8592 23.5293C22.0822 22.6663 23.7602 20.6793 23.9242 17.1103C24.0282 14.9013 24.0222 9.43326 23.9242 7.22326C23.7262 3.01026 21.4652 0.455262 16.9482 0.247262ZM20.4432 20.6193C18.9302 22.1323 16.8312 21.9973 11.9752 21.9973C6.97523 21.9973 4.97023 22.0713 3.50723 20.6043C1.82223 18.9273 2.12723 16.2343 2.12723 12.1513C2.12723 6.62626 1.56023 2.64726 7.10523 2.36326C8.37923 2.31826 8.75423 2.30326 11.9612 2.30326L12.0062 2.33326C17.3352 2.33326 21.5162 1.77526 21.7672 7.31926C21.8242 8.58426 21.8372 8.96426 21.8372 12.1663C21.8362 17.1083 21.9302 19.1253 20.4432 20.6193Z" fill="#FBFBFB"/>
<path d="M18.4078 7.20612C19.2025 7.20612 19.8468 6.56186 19.8468 5.76712C19.8468 4.97239 19.2025 4.32812 18.4078 4.32812C17.613 4.32812 16.9688 4.97239 16.9688 5.76712C16.9688 6.56186 17.613 7.20612 18.4078 7.20612Z" fill="#FBFBFB"/>
</g>
<defs>
<clipPath id="clip0_3223_24836">
<rect width="24" height="24" fill="white" transform="translate(0 0.171875)"/>
</clipPath>
</defs>
</svg>
