<svg width="24" height="25" viewBox="0 0 24 25" fill="none" xmlns="http://www.w3.org/2000/svg">
<path d="M22.2234 0.171875H1.77187C0.792187 0.171875 0 0.945313 0 1.90156V22.4375C0 23.3937 0.792187 24.1719 1.77187 24.1719H22.2234C23.2031 24.1719 24 23.3938 24 22.4422V1.90156C24 0.945313 23.2031 0.171875 22.2234 0.171875ZM7.12031 20.6234H3.55781V9.16719H7.12031V20.6234ZM5.33906 7.60625C4.19531 7.60625 3.27188 6.68281 3.27188 5.54375C3.27188 4.40469 4.19531 3.48125 5.33906 3.48125C6.47813 3.48125 7.40156 4.40469 7.40156 5.54375C7.40156 6.67812 6.47813 7.60625 5.33906 7.60625ZM20.4516 20.6234H16.8937V15.0547C16.8937 13.7281 16.8703 12.0172 15.0422 12.0172C13.1906 12.0172 12.9094 13.4656 12.9094 14.9609V20.6234H9.35625V9.16719H12.7687V10.7328H12.8156C13.2891 9.83281 14.4516 8.88125 16.1813 8.88125C19.7859 8.88125 20.4516 11.2531 20.4516 14.3375V20.6234Z" fill="white"/>
</svg>
