<svg width="24" height="25" viewBox="0 0 24 25" fill="none" xmlns="http://www.w3.org/2000/svg">
<g clip-path="url(#clip0_3223_24834)">
<path d="M23.4693 6.10089L23.4993 6.29689C23.2093 5.26789 22.4263 4.47389 21.4313 4.18489L21.4103 4.17989C19.5393 3.67189 12.0103 3.67189 12.0103 3.67189C12.0103 3.67189 4.50029 3.66189 2.61029 4.17989C1.59629 4.47389 0.812294 5.26789 0.527294 6.27589L0.522294 6.29689C-0.176706 9.94789 -0.181706 14.3349 0.553294 18.2439L0.522294 18.0459C0.812294 19.0749 1.59529 19.8689 2.59029 20.1579L2.61129 20.1629C4.48029 20.6719 12.0113 20.6719 12.0113 20.6719C12.0113 20.6719 19.5203 20.6719 21.4113 20.1629C22.4263 19.8689 23.2103 19.0749 23.4953 18.0669L23.5003 18.0459C23.8183 16.3479 24.0003 14.3939 24.0003 12.3979C24.0003 12.3249 24.0003 12.2509 23.9993 12.1769C24.0003 12.1089 24.0003 12.0279 24.0003 11.9469C24.0003 9.94989 23.8183 7.99589 23.4693 6.10089ZM9.60829 15.8229V8.52989L15.8743 12.1819L9.60829 15.8229Z" fill="#FBFBFB"/>
</g>
<defs>
<clipPath id="clip0_3223_24834">
<rect width="24" height="24" fill="white" transform="translate(0 0.171875)"/>
</clipPath>
</defs>
</svg>
